solid WRAP
facet normal -0.6706091193467 -0.2102147921541 0.7114022422010
outer loop
vertex 29.3940882000000 -40.7778804000000 102.5881000000000
vertex 29.2411037000000 -39.8970014000000 102.7041820000000
vertex 28.9440980158554 -40.8243840233322 102.1501715649515
endloop
endfacet
facet normal -0.6706193228699 -0.2102088063872 0.7113943923808
outer loop
vertex 28.9440980158554 -40.8243840233322 102.1501715649515
vertex 28.5459674187206 -40.2861078573140 101.9339150372832
vertex 28.4648921556830 -40.9477428847492 101.6619812837243
endloop
endfacet
facet normal -0.6706205197009 -0.2102172095704 0.7113907810455
outer loop
vertex 26.1210983000000 -40.9331128000000 99.4568411000000
vertex 26.5114704000000 -41.7351586000000 99.5878348000000
vertex 26.7596265902428 -41.2401615944550 99.9680414736393
endloop
endfacet
facet normal -0.6706107287655 -0.2102291662515 0.7113964774454
outer loop
vertex 26.9716838000000 -38.2165535000000 101.0614100000000
vertex 26.4286049000000 -38.5820153000000 100.4414670000000
vertex 26.9772370649800 -39.0824872402780 100.8107474583288
endloop
endfacet
facet normal -0.6706181979939 -0.2102153925157 0.7113935066254
outer loop
vertex 26.4286049000000 -38.5820153000000 100.4414670000000
vertex 26.0762513000000 -39.2266261000000 99.9188282000000
vertex 26.5264100232513 -39.1729789768706 100.3590375636327
endloop
endfacet
facet normal -0.6706249451977 -0.2102236173091 0.7113847156104
outer loop
vertex 27.3256410064871 -38.6864661640952 101.2562185942580
vertex 26.9772370649800 -39.0824872402780 100.8107474583288
vertex 27.7266251035051 -39.2471898418319 101.4685264706137
endloop
endfacet
facet normal -0.6706213691467 -0.2102145741859 0.7113907590373
outer loop
vertex 27.7266251035051 -39.2471898418319 101.4685264706137
vertex 27.8354960346743 -40.5764868284911 101.1783534194827
vertex 28.2097894738257 -39.8097497957945 101.7577656092405
endloop
endfacet
facet normal -0.6706253583880 -0.2102045458885 0.7113899616770
outer loop
vertex 27.7266251035051 -39.2471898418319 101.4685264706137
vertex 26.9772370649800 -39.0824872402780 100.8107474583288
vertex 27.2362239058957 -39.8538347912431 100.8269725696683
endloop
endfacet
facet normal -0.6706189002328 -0.2102167046582 0.7113924568993
outer loop
vertex 27.8354960346743 -40.5764868284911 101.1783534194827
vertex 27.2362239058957 -39.8538347912431 100.8269725696683
vertex 27.0402087330595 -40.5572641881108 100.4343284156621
endloop
endfacet
facet normal -0.6706128951839 -0.2102133018341 0.7113991232389
outer loop
vertex 27.0402087330595 -40.5572641881108 100.4343284156621
vertex 26.7596265902428 -41.2401615944550 99.9680414736393
vertex 27.3310841164254 -41.3637264747606 100.4702234316401
endloop
endfacet
facet normal -0.6706194670369 -0.2102182608887 0.7113914627124
outer loop
vertex 26.5114704000000 -41.7351586000000 99.5878348000000
vertex 27.0799501000000 -42.3362366000000 99.9461129000000
vertex 26.7596265902428 -41.2401615944550 99.9680414736393
endloop
endfacet
facet normal -0.6706123044864 -0.2102220159500 0.7113971050555
outer loop
vertex 28.5459674187206 -40.2861078573140 101.9339150372832
vertex 29.2411037000000 -39.8970014000000 102.7041820000000
vertex 28.6334089637157 -39.6708988150602 102.1981413881560
endloop
endfacet
facet normal -0.6706239562431 -0.2102018102235 0.7113920918112
outer loop
vertex 27.7757870835424 -41.5154733333975 100.8445917521715
vertex 27.9404739913084 -42.0697679809600 100.8360581280882
vertex 28.2901356550630 -41.6259156576999 101.2968308213582
endloop
endfacet
facet normal -0.6706079775693 -0.2102203923523 0.7114016636610
outer loop
vertex 29.2862553000000 -41.6035526000000 102.2424630000000
vertex 29.3940882000000 -40.7778804000000 102.5881000000000
vertex 28.9440980158554 -40.8243840233322 102.1501715649515
endloop
endfacet
facet normal -0.6706195932846 -0.2102277284245 0.7113885459468
outer loop
vertex 27.0402087330595 -40.5572641881108 100.4343284156621
vertex 26.6173568467780 -39.7844515537656 100.2640893584386
vertex 26.4990926234987 -40.5155445421194 99.9365520023033
endloop
endfacet
facet normal -0.6706115167725 -0.2102108567270 0.7114011451257
outer loop
vertex 29.2411037000000 -39.8970014000000 102.7041820000000
vertex 28.8506055000000 -39.0950406000000 102.5730440000000
vertex 28.6334089637157 -39.6708988150602 102.1981413881560
endloop
endfacet
facet normal -0.6706181494197 -0.2102170130874 0.7113930735378
outer loop
vertex 28.2827898000000 -38.4946648000000 102.2151850000000
vertex 27.6227912000000 -38.1858753000000 101.6842630000000
vertex 27.7266251035051 -39.2471898418319 101.4685264706137
endloop
endfacet
facet normal -0.6706226469805 -0.2102132845414 0.7113899355200
outer loop
vertex 26.0762513000000 -39.2266261000000 99.9188282000000
vertex 25.9682651000000 -40.0522266000000 99.5730682000000
vertex 26.6173568467780 -39.7844515537656 100.2640893584386
endloop
endfacet
facet normal -0.6706173809253 -0.2102203884634 0.7113928005506
outer loop
vertex 27.7399738000000 -42.6448342000000 100.4771150000000
vertex 28.3910457000000 -42.6139513000000 101.0999950000000
vertex 27.9404739913084 -42.0697679809600 100.8360581280882
endloop
endfacet
facet normal -0.6706128202725 -0.2102164544337 0.7113982622775
outer loop
vertex 26.7596265902428 -41.2401615944550 99.9680414736393
vertex 27.0799501000000 -42.3362366000000 99.9461129000000
vertex 27.3310841164254 -41.3637264747606 100.4702234316401
endloop
endfacet
facet normal -0.6706167424300 -0.2102075044936 0.7113972096003
outer loop
vertex 27.0799501000000 -42.3362366000000 99.9461129000000
vertex 27.7399738000000 -42.6448342000000 100.4771150000000
vertex 27.5623390079089 -41.9800209141143 100.5061056621611
endloop
endfacet
facet normal -0.6706145004050 -0.2102211182782 0.7113953002912
outer loop
vertex 27.8354960346743 -40.5764868284911 101.1783534194827
vertex 27.3310841164254 -41.3637264747606 100.4702234316401
vertex 27.7757870835424 -41.5154733333975 100.8445917521715
endloop
endfacet
facet normal -0.6706179001942 -0.2102149743566 0.7113939109210
outer loop
vertex 28.3910457000000 -42.6139513000000 101.0999950000000
vertex 28.9340339000000 -42.2483031000000 101.7199080000000
vertex 28.2901356550630 -41.6259156576999 101.2968308213582
endloop
endfacet
facet normal -0.6706274321215 -0.2102200108065 0.7113834369330
outer loop
vertex 28.4648921556830 -40.9477428847492 101.6619812837243
vertex 27.8354960346743 -40.5764868284911 101.1783534194827
vertex 28.2901356550630 -41.6259156576999 101.2968308213582
endloop
endfacet
facet normal -0.6706184932885 -0.2102077536315 0.7113954854880
outer loop
vertex 28.9440980158554 -40.8243840233322 102.1501715649515
vertex 29.2411037000000 -39.8970014000000 102.7041820000000
vertex 28.5459674187206 -40.2861078573140 101.9339150372832
endloop
endfacet
facet normal -0.6706232442675 -0.2102260940924 0.7113855871543
outer loop
vertex 26.9716838000000 -38.2165535000000 101.0614100000000
vertex 26.9772370649800 -39.0824872402780 100.8107474583288
vertex 27.3256410064871 -38.6864661640952 101.2562185942580
endloop
endfacet
facet normal -0.6706217704984 -0.2102141803019 0.7113904970785
outer loop
vertex 27.8354960346743 -40.5764868284911 101.1783534194827
vertex 28.5459674187206 -40.2861078573140 101.9339150372832
vertex 28.2097894738257 -39.8097497957945 101.7577656092405
endloop
endfacet
facet normal -0.6706063394771 -0.2102078348855 0.7114069184411
outer loop
vertex 26.9772370649800 -39.0824872402780 100.8107474583288
vertex 26.5264100232513 -39.1729789768706 100.3590375636327
vertex 26.6173568467780 -39.7844515537656 100.2640893584386
endloop
endfacet
facet normal -0.6706169010837 -0.2102291170811 0.7113906734785
outer loop
vertex 26.6173568467780 -39.7844515537656 100.2640893584386
vertex 25.9682651000000 -40.0522266000000 99.5730682000000
vertex 26.4990926234987 -40.5155445421194 99.9365520023033
endloop
endfacet
facet normal -0.6706112149171 -0.2102151619355 0.7114001575202
outer loop
vertex 25.9682651000000 -40.0522266000000 99.5730682000000
vertex 26.1210983000000 -40.9331128000000 99.4568411000000
vertex 26.4990926234987 -40.5155445421194 99.9365520023033
endloop
endfacet
facet normal -0.6706139832448 -0.2102152912560 0.7113975096939
outer loop
vertex 27.9404739913084 -42.0697679809600 100.8360581280882
vertex 28.3910457000000 -42.6139513000000 101.0999950000000
vertex 28.2901356550630 -41.6259156576999 101.2968308213582
endloop
endfacet
facet normal -0.6706117583994 -0.2102171563274 0.7113990558625
outer loop
vertex 27.3310841164254 -41.3637264747606 100.4702234316401
vertex 27.0799501000000 -42.3362366000000 99.9461129000000
vertex 27.5623390079089 -41.9800209141143 100.5061056621611
endloop
endfacet
facet normal -0.6706202242083 -0.2102198466335 0.7113902803414
outer loop
vertex 28.2901356550630 -41.6259156576999 101.2968308213582
vertex 28.9340339000000 -42.2483031000000 101.7199080000000
vertex 28.7747832943129 -41.4466135528238 101.8066878991213
endloop
endfacet
facet normal -0.6706141375142 -0.2102192768718 0.7113961865216
outer loop
vertex 28.9340339000000 -42.2483031000000 101.7199080000000
vertex 29.2862553000000 -41.6035526000000 102.2424630000000
vertex 28.7747832943129 -41.4466135528238 101.8066878991213
endloop
endfacet
facet normal -0.6706155082450 -0.2102119627375 0.7113970556752
outer loop
vertex 28.8506055000000 -39.0950406000000 102.5730440000000
vertex 28.2827898000000 -38.4946648000000 102.2151850000000
vertex 28.3385304868212 -39.2649219067196 102.0401256738473
endloop
endfacet
facet normal -0.6706177625234 -0.2102149938954 0.7113940349270
outer loop
vertex 27.8354960346743 -40.5764868284911 101.1783534194827
vertex 27.7266251035051 -39.2471898418319 101.4685264706137
vertex 27.2362239058957 -39.8538347912431 100.8269725696683
endloop
endfacet
facet normal -0.6706193836599 -0.2102169038907 0.7113919423062
outer loop
vertex 27.6227912000000 -38.1858753000000 101.6842630000000
vertex 27.3256410064871 -38.6864661640952 101.2562185942580
vertex 27.7266251035051 -39.2471898418319 101.4685264706137
endloop
endfacet
facet normal -0.6706176667315 -0.2102188222854 0.7113929939383
outer loop
vertex 27.6227912000000 -38.1858753000000 101.6842630000000
vertex 26.9716838000000 -38.2165535000000 101.0614100000000
vertex 27.3256410064871 -38.6864661640952 101.2562185942580
endloop
endfacet
facet normal -0.6706045227527 -0.2102149457611 0.7114065298001
outer loop
vertex 26.9772370649800 -39.0824872402780 100.8107474583288
vertex 26.4286049000000 -38.5820153000000 100.4414670000000
vertex 26.5264100232513 -39.1729789768706 100.3590375636327
endloop
endfacet
facet normal -0.6706197965332 -0.2102078652364 0.7113942239648
outer loop
vertex 26.5264100232513 -39.1729789768706 100.3590375636327
vertex 26.0762513000000 -39.2266261000000 99.9188282000000
vertex 26.6173568467780 -39.7844515537656 100.2640893584386
endloop
endfacet
facet normal -0.6706235608227 -0.2102178495402 0.7113877250868
outer loop
vertex 27.8354960346743 -40.5764868284911 101.1783534194827
vertex 27.7757870835424 -41.5154733333975 100.8445917521715
vertex 28.2901356550630 -41.6259156576999 101.2968308213582
endloop
endfacet
facet normal -0.6706190213288 -0.2102158013300 0.7113926096771
outer loop
vertex 27.8354960346743 -40.5764868284911 101.1783534194827
vertex 27.0402087330595 -40.5572641881108 100.4343284156621
vertex 27.3310841164254 -41.3637264747606 100.4702234316401
endloop
endfacet
facet normal -0.6706219241706 -0.2102053789638 0.7113929529286
outer loop
vertex 26.7596265902428 -41.2401615944550 99.9680414736393
vertex 27.0402087330595 -40.5572641881108 100.4343284156621
vertex 26.4990926234987 -40.5155445421194 99.9365520023033
endloop
endfacet
facet normal -0.6706186898682 -0.2102040667336 0.7113963895945
outer loop
vertex 26.1210983000000 -40.9331128000000 99.4568411000000
vertex 26.7596265902428 -41.2401615944550 99.9680414736393
vertex 26.4990926234987 -40.5155445421194 99.9365520023033
endloop
endfacet
facet normal -0.6706143547310 -0.2102182926085 0.7113962726086
outer loop
vertex 27.7757870835424 -41.5154733333975 100.8445917521715
vertex 27.3310841164254 -41.3637264747606 100.4702234316401
vertex 27.5623390079089 -41.9800209141143 100.5061056621611
endloop
endfacet
facet normal -0.6706180508599 -0.2102262044778 0.7113904503237
outer loop
vertex 28.4648921556830 -40.9477428847492 101.6619812837243
vertex 28.2901356550630 -41.6259156576999 101.2968308213582
vertex 28.7747832943129 -41.4466135528238 101.8066878991213
endloop
endfacet
facet normal -0.6706300200586 -0.2102035160822 0.7113858713967
outer loop
vertex 27.9404739913084 -42.0697679809600 100.8360581280882
vertex 27.7757870835424 -41.5154733333975 100.8445917521715
vertex 27.5623390079089 -41.9800209141143 100.5061056621611
endloop
endfacet
facet normal -0.6706299420713 -0.2102104507931 0.7113838957797
outer loop
vertex 27.7399738000000 -42.6448342000000 100.4771150000000
vertex 27.9404739913084 -42.0697679809600 100.8360581280882
vertex 27.5623390079089 -41.9800209141143 100.5061056621611
endloop
endfacet
facet normal -0.6706174584817 -0.2102059190725 0.7113970030626
outer loop
vertex 28.6334089637157 -39.6708988150602 102.1981413881560
vertex 28.8506055000000 -39.0950406000000 102.5730440000000
vertex 28.3385304868212 -39.2649219067196 102.0401256738473
endloop
endfacet
facet normal -0.6706245724842 -0.2102064190879 0.7113901490425
outer loop
vertex 28.4648921556830 -40.9477428847492 101.6619812837243
vertex 28.5459674187206 -40.2861078573140 101.9339150372832
vertex 27.8354960346743 -40.5764868284911 101.1783534194827
endloop
endfacet
facet normal -0.6706151696740 -0.2102233852272 0.7113939994875
outer loop
vertex 28.9440980158554 -40.8243840233322 102.1501715649515
vertex 28.4648921556830 -40.9477428847492 101.6619812837243
vertex 28.7747832943129 -41.4466135528238 101.8066878991213
endloop
endfacet
facet normal -0.6706142814598 -0.2102239904043 0.7113946579506
outer loop
vertex 29.2862553000000 -41.6035526000000 102.2424630000000
vertex 28.9440980158554 -40.8243840233322 102.1501715649515
vertex 28.7747832943129 -41.4466135528238 101.8066878991213
endloop
endfacet
facet normal -0.6706227985503 -0.2102109934751 0.7113904696345
outer loop
vertex 28.2827898000000 -38.4946648000000 102.2151850000000
vertex 27.7266251035051 -39.2471898418319 101.4685264706137
vertex 28.3385304868212 -39.2649219067196 102.0401256738473
endloop
endfacet
facet normal -0.6706221629457 -0.2102158317584 0.7113896391178
outer loop
vertex 27.7266251035051 -39.2471898418319 101.4685264706137
vertex 28.2097894738257 -39.8097497957945 101.7577656092405
vertex 28.3385304868212 -39.2649219067196 102.0401256738473
endloop
endfacet
facet normal -0.6706237122112 -0.2102164786255 0.7113879874824
outer loop
vertex 28.2097894738257 -39.8097497957945 101.7577656092405
vertex 28.5459674187206 -40.2861078573140 101.9339150372832
vertex 28.6334089637157 -39.6708988150602 102.1981413881560
endloop
endfacet
facet normal -0.6706243631840 -0.2102144487125 0.7113879736519
outer loop
vertex 28.2097894738257 -39.8097497957945 101.7577656092405
vertex 28.6334089637157 -39.6708988150602 102.1981413881560
vertex 28.3385304868212 -39.2649219067196 102.0401256738473
endloop
endfacet
facet normal -0.6706137001748 -0.2102003744407 0.7114021842270
outer loop
vertex 27.2362239058957 -39.8538347912431 100.8269725696683
vertex 26.9772370649800 -39.0824872402780 100.8107474583288
vertex 26.6173568467780 -39.7844515537656 100.2640893584386
endloop
endfacet
facet normal -0.6706119159972 -0.2102215299721 0.7113976148813
outer loop
vertex 27.0402087330595 -40.5572641881108 100.4343284156621
vertex 27.2362239058957 -39.8538347912431 100.8269725696683
vertex 26.6173568467780 -39.7844515537656 100.2640893584386
endloop
endfacet
endsolid WRAP
