solid WRAP
facet normal -0.5389985010730 0.5884681588492 0.6026490204602
outer loop
vertex 29.0487669000000 3.5947085000000 106.4916830000000
vertex 29.0091525000000 3.4799261600000 106.5683340000000
vertex 29.3189248299346 3.6141601297087 106.7143135030148
endloop
endfacet
facet normal -0.5399463283491 0.5894185606878 0.6008691395130
outer loop
vertex 29.4815423000000 3.8942181100000 106.5857220000000
vertex 29.3730109000000 3.8746468700000 106.5073930000000
vertex 29.3189248299346 3.6141601297087 106.7143135030148
endloop
endfacet
facet normal -0.5375513406943 0.5899705867422 0.6024726241887
outer loop
vertex 29.3189248299346 3.6141601297087 106.7143135030148
vertex 29.3867526000000 3.3826983000000 107.0014910000000
vertex 29.5038713000000 3.4822064300000 107.0085460000000
endloop
endfacet
facet normal -0.5381046702351 0.5892033607203 0.6027294281741
outer loop
vertex 29.5671495000000 3.8724796500000 106.6834010000000
vertex 29.4815423000000 3.8942181100000 106.5857220000000
vertex 29.3189248299346 3.6141601297087 106.7143135030148
endloop
endfacet
facet normal -0.5380445302874 0.5904285005158 0.6015831357398
outer loop
vertex 29.2510790000000 3.8130249900000 106.4584560000000
vertex 29.1347967000000 3.7138881000000 106.4517540000000
vertex 29.3189248299346 3.6141601297087 106.7143135030148
endloop
endfacet
facet normal -0.5392931501805 0.5896041564326 0.6012735125430
outer loop
vertex 29.3730109000000 3.8746468700000 106.5073930000000
vertex 29.2510790000000 3.8130249900000 106.4584560000000
vertex 29.3189248299346 3.6141601297087 106.7143135030148
endloop
endfacet
facet normal -0.5382926588576 0.5901375595944 0.6016466356393
outer loop
vertex 29.1347967000000 3.7138881000000 106.4517540000000
vertex 29.0487669000000 3.5947085000000 106.4916830000000
vertex 29.3189248299346 3.6141601297087 106.7143135030148
endloop
endfacet
facet normal -0.5396268135059 0.5888940526052 0.6016699235890
outer loop
vertex 29.0167343000000 3.3878336200000 106.6648050000000
vertex 29.0658176000000 3.3269681200000 106.7684000000000
vertex 29.3189248299346 3.6141601297087 106.7143135030148
endloop
endfacet
facet normal -0.5397976541056 0.5889968043884 0.6014160432199
outer loop
vertex 29.0658176000000 3.3269681200000 106.7684000000000
vertex 29.1506737000000 3.3027184900000 106.8683110000000
vertex 29.3189248299346 3.6141601297087 106.7143135030148
endloop
endfacet
facet normal -0.5395277485334 0.5889792305778 0.6016753896500
outer loop
vertex 29.1506737000000 3.3027184900000 106.8683110000000
vertex 29.2622830000000 3.3207592400000 106.9507320000000
vertex 29.3189248299346 3.6141601297087 106.7143135030148
endloop
endfacet
facet normal -0.5390127137871 0.5876985254060 0.6033868888297
outer loop
vertex 29.0091525000000 3.4799261600000 106.5683340000000
vertex 29.0167343000000 3.3878336200000 106.6648050000000
vertex 29.3189248299346 3.6141601297087 106.7143135030148
endloop
endfacet
facet normal -0.5387583189126 0.5892066693770 0.6021419887071
outer loop
vertex 29.2622830000000 3.3207592400000 106.9507320000000
vertex 29.3867526000000 3.3826983000000 107.0014910000000
vertex 29.3189248299346 3.6141601297087 106.7143135030148
endloop
endfacet
facet normal -0.5381946666512 0.5892721720908 0.6025817853101
outer loop
vertex 29.6200058000000 3.8120565400000 106.7896980000000
vertex 29.5671495000000 3.8724796500000 106.6834010000000
vertex 29.3189248299346 3.6141601297087 106.7143135030148
endloop
endfacet
facet normal -0.5374713487992 0.5900557867092 0.6024605528920
outer loop
vertex 29.5901025000000 3.6018613300000 106.9682840000000
vertex 29.3189248299346 3.6141601297087 106.7143135030148
vertex 29.5038713000000 3.4822064300000 107.0085460000000
endloop
endfacet
facet normal -0.5380161760667 0.5887430105037 0.6032580392118
outer loop
vertex 29.6296348000000 3.7182019300000 106.8898820000000
vertex 29.6200058000000 3.8120565400000 106.7896980000000
vertex 29.3189248299346 3.6141601297087 106.7143135030148
endloop
endfacet
facet normal -0.5379619019694 0.5891193116388 0.6029389925056
outer loop
vertex 29.5901025000000 3.6018613300000 106.9682840000000
vertex 29.6296348000000 3.7182019300000 106.8898820000000
vertex 29.3189248299346 3.6141601297087 106.7143135030148
endloop
endfacet
endsolid WRAP
