solid WRAP
facet normal -0.9074237279980 0.3787393624385 -0.1820403065421
outer loop
vertex 5.9341495600000 32.6817556000000 134.2054810000000
vertex 6.0187205600000 32.8204497000000 134.0724730000000
vertex 5.9047155269205 32.3772165026442 133.7186008951117
endloop
endfacet
facet normal -0.9074204239024 0.3787391762986 -0.1820571630600
outer loop
vertex 6.1497238200000 32.8250680000000 133.4290950000000
vertex 6.1166703700000 32.6595328000000 133.2494740000000
vertex 5.9047155269205 32.3772165026442 133.7186008951117
endloop
endfacet
facet normal -0.9074231687515 0.3787304350976 -0.1820616663216
outer loop
vertex 6.0471045700000 32.4473567000000 133.1548200000000
vertex 5.9574014600000 32.2330695000000 133.1561470000000
vertex 5.9047155269205 32.3772165026442 133.7186008951117
endloop
endfacet
facet normal -0.9074289804662 0.3787198382672 -0.1820547431761
outer loop
vertex 5.7779011300000 31.9178601000000 133.3951140000000
vertex 5.7165711500000 31.8562125000000 133.5725630000000
vertex 5.9047155269205 32.3772165026442 133.7186008951117
endloop
endfacet
facet normal -0.9074301974657 0.3787190418312 -0.1820503339238
outer loop
vertex 5.7165711500000 31.8562125000000 133.5725630000000
vertex 5.6759856400000 31.8585196000000 133.7796610000000
vertex 5.9047155269205 32.3772165026442 133.7186008951117
endloop
endfacet
facet normal -0.9074275791557 0.3787216767743 -0.1820579032311
outer loop
vertex 5.8635390500000 32.0495719000000 133.2422610000000
vertex 5.7779011300000 31.9178601000000 133.3951140000000
vertex 5.9047155269205 32.3772165026442 133.7186008951117
endloop
endfacet
facet normal -0.9074295193576 0.3787266139101 -0.1820379611912
outer loop
vertex 5.7001748400000 32.1060260000000 134.1739960000000
vertex 5.7675837100000 32.3125158000000 134.2675720000000
vertex 5.9047155269205 32.3772165026442 133.7186008951117
endloop
endfacet
facet normal -0.9074306255685 0.3787225658925 -0.1820408686644
outer loop
vertex 5.6672497300000 31.9413396000000 133.9955020000000
vertex 5.7001748400000 32.1060260000000 134.1739960000000
vertex 5.9047155269205 32.3772165026442 133.7186008951117
endloop
endfacet
facet normal -0.9074308535664 0.3787199348233 -0.1820452058230
outer loop
vertex 5.6759856400000 31.8585196000000 133.7796610000000
vertex 5.6672497300000 31.9413396000000 133.9955020000000
vertex 5.9047155269205 32.3772165026442 133.7186008951117
endloop
endfacet
facet normal -0.9074259693863 0.3787352836309 -0.1820376197831
outer loop
vertex 5.8502581300000 32.5125849000000 134.2717000000000
vertex 5.9341495600000 32.6817556000000 134.2054810000000
vertex 5.9047155269205 32.3772165026442 133.7186008951117
endloop
endfacet
facet normal -0.9074218169026 0.3787340546529 -0.1820608745870
outer loop
vertex 6.1166703700000 32.6595328000000 133.2494740000000
vertex 6.0471045700000 32.4473567000000 133.1548200000000
vertex 5.9047155269205 32.3772165026442 133.7186008951117
endloop
endfacet
facet normal -0.9074202208156 0.3787413962182 -0.1820535570807
outer loop
vertex 6.1397014700000 32.9090371000000 133.6537380000000
vertex 6.1497238200000 32.8250680000000 133.4290950000000
vertex 5.9047155269205 32.3772165026442 133.7186008951117
endloop
endfacet
facet normal -0.9074209190583 0.3787423784393 -0.1820480333032
outer loop
vertex 6.0926903300000 32.9044099000000 133.8784390000000
vertex 6.1397014700000 32.9090371000000 133.6537380000000
vertex 5.9047155269205 32.3772165026442 133.7186008951117
endloop
endfacet
facet normal -0.9074222412368 0.3787414422442 -0.1820433905298
outer loop
vertex 6.0187205600000 32.8204497000000 134.0724730000000
vertex 6.0926903300000 32.9044099000000 133.8784390000000
vertex 5.9047155269205 32.3772165026442 133.7186008951117
endloop
endfacet
facet normal -0.9074255323186 0.3787252984410 -0.1820605712862
outer loop
vertex 5.9574014600000 32.2330695000000 133.1561470000000
vertex 5.8635390500000 32.0495719000000 133.2422610000000
vertex 5.9047155269205 32.3772165026442 133.7186008951117
endloop
endfacet
facet normal -0.9074276294653 0.3787316545168 -0.1820368950237
outer loop
vertex 5.7675837100000 32.3125158000000 134.2675720000000
vertex 5.8502581300000 32.5125849000000 134.2717000000000
vertex 5.9047155269205 32.3772165026442 133.7186008951117
endloop
endfacet
endsolid WRAP
