solid WRAP
facet normal -0.5070653285991 0.8230731593005 0.2558032974216
outer loop
vertex -3.7389489000000 28.5626922000000 75.5527059000000
vertex -3.5723851000000 28.7092121000000 75.4114338000000
vertex -4.0455328982736 28.5667444169186 74.9319422569594
endloop
endfacet
facet normal -0.5070577953609 0.8230707089384 0.2558261133099
outer loop
vertex -3.9271586100000 28.8350866000000 74.3032262000000
vertex -4.1503086700000 28.7108134000000 74.2607585000000
vertex -4.0455328982736 28.5667444169186 74.9319422569594
endloop
endfacet
facet normal -0.5070537828578 0.8230732087610 0.2558260235190
outer loop
vertex -4.1503086700000 28.7108134000000 74.2607585000000
vertex -4.3520840400000 28.5708547000000 74.3111259000000
vertex -4.0455328982736 28.5667444169186 74.9319422569594
endloop
endfacet
facet normal -0.5070464026768 0.8230808989385 0.2558159090736
outer loop
vertex -4.6196283900000 28.2918212000000 74.6785999000000
vertex -4.6243018900000 28.2024566000000 74.9568649000000
vertex -4.0455328982736 28.5667444169186 74.9319422569594
endloop
endfacet
facet normal -0.5070475037603 0.8230787052215 0.2558207848110
outer loop
vertex -4.5186860900000 28.4243322000000 74.4523304000000
vertex -4.6196283900000 28.2918212000000 74.6785999000000
vertex -4.0455328982736 28.5667444169186 74.9319422569594
endloop
endfacet
facet normal -0.5070502175472 0.8230759467167 0.2558242811418
outer loop
vertex -4.3520840400000 28.5708547000000 74.3111259000000
vertex -4.5186860900000 28.4243322000000 74.4523304000000
vertex -4.0455328982736 28.5667444169186 74.9319422569594
endloop
endfacet
facet normal -0.5070472897469 0.8230819554354 0.2558107515272
outer loop
vertex -4.6243018900000 28.2024566000000 74.9568649000000
vertex -4.5297317100000 28.1774161000000 75.2248831000000
vertex -4.0455328982736 28.5667444169186 74.9319422569594
endloop
endfacet
facet normal -0.5070576313254 0.8230784676327 0.2558014750427
outer loop
vertex -4.1638584300000 28.2984272000000 75.5607434000000
vertex -3.9406980200000 28.4227284000000 75.6031417000000
vertex -4.0455328982736 28.5667444169186 74.9319422569594
endloop
endfacet
facet normal -0.5070534985194 0.8230805021292 0.2558031208840
outer loop
vertex -4.3649358800000 28.2142682000000 75.4329600000000
vertex -4.1638584300000 28.2984272000000 75.5607434000000
vertex -4.0455328982736 28.5667444169186 74.9319422569594
endloop
endfacet
facet normal -0.5070617924150 0.8230758750733 0.2558015686918
outer loop
vertex -3.9406980200000 28.4227284000000 75.6031417000000
vertex -3.7389489000000 28.5626922000000 75.5527059000000
vertex -4.0455328982736 28.5667444169186 74.9319422569594
endloop
endfacet
facet normal -0.5070656182886 0.8230673558078 0.2558213958081
outer loop
vertex -3.5613414600000 28.9560258000000 74.6392069000000
vertex -3.7260993200000 28.9192151000000 74.4310720000000
vertex -4.0455328982736 28.5667444169186 74.9319422569594
endloop
endfacet
facet normal -0.5070680163478 0.8230704268645 0.2558067614789
outer loop
vertex -3.5723851000000 28.7092121000000 75.4114338000000
vertex -3.4715050000000 28.8417028000000 75.1851063000000
vertex -4.0455328982736 28.5667444169186 74.9319422569594
endloop
endfacet
facet normal -0.5070690997027 0.8230682668750 0.2558115638320
outer loop
vertex -3.4715050000000 28.8417028000000 75.1851063000000
vertex -3.4668384200000 28.9309349000000 74.9072540000000
vertex -4.0455328982736 28.5667444169186 74.9319422569594
endloop
endfacet
facet normal -0.5070681818666 0.8230671708307 0.2558169096038
outer loop
vertex -3.4668384200000 28.9309349000000 74.9072540000000
vertex -3.5613414600000 28.9560258000000 74.6392069000000
vertex -4.0455328982736 28.5667444169186 74.9319422569594
endloop
endfacet
facet normal -0.5070622872712 0.8230684978473 0.2558243238603
outer loop
vertex -3.7260993200000 28.9192151000000 74.4310720000000
vertex -3.9271586100000 28.8350866000000 74.3032262000000
vertex -4.0455328982736 28.5667444169186 74.9319422569594
endloop
endfacet
facet normal -0.5070497882113 0.8230817745043 0.2558063813782
outer loop
vertex -4.5297317100000 28.1774161000000 75.2248831000000
vertex -4.3649358800000 28.2142682000000 75.4329600000000
vertex -4.0455328982736 28.5667444169186 74.9319422569594
endloop
endfacet
endsolid WRAP
