solid WRAP
facet normal -0.8739986602143 0.4776576723461 0.0892720000473
outer loop
vertex -10.7401355000000 21.1720342000000 69.3287530000000
vertex -10.6916972000000 21.2189310000000 69.5520525000000
vertex -10.4542710259747 21.7058945600121 69.2709820346633
endloop
endfacet
facet normal -0.8739947308682 0.4776649934785 0.0892712967300
outer loop
vertex -10.1601452000000 22.2075708000000 69.4662435000000
vertex -10.1651606000000 22.2454806000000 69.2142967000000
vertex -10.4542710259747 21.7058945600121 69.2709820346633
endloop
endfacet
facet normal -0.8739948516361 0.4776645029861 0.0892727388443
outer loop
vertex -10.2077152000000 22.0789870000000 69.6885284000000
vertex -10.1601452000000 22.2075708000000 69.4662435000000
vertex -10.4542710259747 21.7058945600121 69.2709820346633
endloop
endfacet
facet normal -0.8739949593705 0.4776649214052 0.0892694452426
outer loop
vertex -10.1651606000000 22.2454806000000 69.2142967000000
vertex -10.2159022000000 22.1953953000000 68.9855072000000
vertex -10.4542710259747 21.7058945600121 69.2709820346633
endloop
endfacet
facet normal -0.8739967539835 0.4776622083349 0.0892663920792
outer loop
vertex -10.4018400000000 21.9089549000000 68.6977573000000
vertex -10.5069618000000 21.7225398000000 68.6660246000000
vertex -10.4542710259747 21.7058945600121 69.2709820346633
endloop
endfacet
facet normal -0.8739987584374 0.4776581876175 0.0892682813317
outer loop
vertex -10.6973399000000 21.3385086000000 68.8569830000000
vertex -10.7448781000000 21.2099800000000 69.0792838000000
vertex -10.4542710259747 21.7058945600121 69.2709820346633
endloop
endfacet
facet normal -0.8739983077578 0.4776592354841 0.0892670868419
outer loop
vertex -10.6105948000000 21.5236805000000 68.7154527000000
vertex -10.6973399000000 21.3385086000000 68.8569830000000
vertex -10.4542710259747 21.7058945600121 69.2709820346633
endloop
endfacet
facet normal -0.8739976009339 0.4776606528468 0.0892664230483
outer loop
vertex -10.5069618000000 21.7225398000000 68.6660246000000
vertex -10.6105948000000 21.5236805000000 68.7154527000000
vertex -10.4542710259747 21.7058945600121 69.2709820346633
endloop
endfacet
facet normal -0.8739989041816 0.4776575913868 0.0892700446958
outer loop
vertex -10.7448781000000 21.2099800000000 69.0792838000000
vertex -10.7401355000000 21.1720342000000 69.3287530000000
vertex -10.4542710259747 21.7058945600121 69.2709820346633
endloop
endfacet
facet normal -0.8739962104717 0.4776631323560 0.0892667691196
outer loop
vertex -10.2980892000000 22.0779478000000 68.8092896000000
vertex -10.4018400000000 21.9089549000000 68.6977573000000
vertex -10.4542710259747 21.7058945600121 69.2709820346633
endloop
endfacet
facet normal -0.8739983160423 0.4776581070142 0.0892730438530
outer loop
vertex -10.6916972000000 21.2189310000000 69.5520525000000
vertex -10.6145097000000 21.3280203000000 69.7240457000000
vertex -10.4542710259747 21.7058945600121 69.2709820346633
endloop
endfacet
facet normal -0.8739974954029 0.4776593591518 0.0892743784309
outer loop
vertex -10.6145097000000 21.3280203000000 69.7240457000000
vertex -10.5137995000000 21.4905926000000 69.8401628000000
vertex -10.4542710259747 21.7058945600121 69.2709820346633
endloop
endfacet
facet normal -0.8739960962819 0.4776618450916 0.0892747748674
outer loop
vertex -10.4035387000000 21.6849693000000 69.8796092000000
vertex -10.2959830000000 21.8907724000000 69.8314318000000
vertex -10.4542710259747 21.7058945600121 69.2709820346633
endloop
endfacet
facet normal -0.8739969396126 0.4776602988118 0.0892747920007
outer loop
vertex -10.5137995000000 21.4905926000000 69.8401628000000
vertex -10.4035387000000 21.6849693000000 69.8796092000000
vertex -10.4542710259747 21.7058945600121 69.2709820346633
endloop
endfacet
facet normal -0.8739953499739 0.4776633423415 0.0892740701834
outer loop
vertex -10.2959830000000 21.8907724000000 69.8314318000000
vertex -10.2077152000000 22.0789870000000 69.6885284000000
vertex -10.4542710259747 21.7058945600121 69.2709820346633
endloop
endfacet
facet normal -0.8739954514028 0.4776642977519 0.0892679650286
outer loop
vertex -10.2159022000000 22.1953953000000 68.9855072000000
vertex -10.2980892000000 22.0779478000000 68.8092896000000
vertex -10.4542710259747 21.7058945600121 69.2709820346633
endloop
endfacet
endsolid WRAP
