solid WRAP
facet normal -0.9142627142121 0.3651969018674 -0.1753707851040
outer loop
vertex -6.2975440900000 -1.4899574200000 62.6382914000000
vertex -6.3648113400000 -1.5994093100000 62.7610510000000
vertex -6.2699356511613 -1.2469295667546 63.0004478036862
endloop
endfacet
facet normal -0.9142602907316 0.3651956664184 -0.1753859915174
outer loop
vertex -6.4425315400000 -1.5549747600000 63.2587398000000
vertex -6.4172114200000 -1.4405104600000 63.3650920000000
vertex -6.2699356511613 -1.2469295667546 63.0004478036862
endloop
endfacet
facet normal -0.9142624963434 0.3651888315857 -0.1753887255926
outer loop
vertex -6.3712974900000 -1.2968199500000 63.4249444000000
vertex -6.3107411000000 -1.1444260100000 63.4265872000000
vertex -6.2699356511613 -1.2469295667546 63.0004478036862
endloop
endfacet
facet normal -0.9142682245463 0.3651797287871 -0.1753778186317
outer loop
vertex -6.1200653000000 -0.8376940930000 63.0712823000000
vertex -6.0935354000000 -0.8573808430000 62.8919857000000
vertex -6.2699356511613 -1.2469295667546 63.0004478036862
endloop
endfacet
facet normal -0.9142672361261 0.3651801183021 -0.1753821602766
outer loop
vertex -6.1735331800000 -0.8898374760000 63.2414376000000
vertex -6.1200653000000 -0.8376940930000 63.0712823000000
vertex -6.2699356511613 -1.2469295667546 63.0004478036862
endloop
endfacet
facet normal -0.9142657277486 0.3651821552793 -0.1753857820058
outer loop
vertex -6.2417649900000 -1.0011039200000 63.3654470000000
vertex -6.1735331800000 -0.8898374760000 63.2414376000000
vertex -6.2699356511613 -1.2469295667546 63.0004478036862
endloop
endfacet
facet normal -0.9142681112234 0.3651834967248 -0.1753705634361
outer loop
vertex -6.0963382500000 -0.9378842440000 62.7389654000000
vertex -6.1239788300000 -1.0590260300000 62.6308054000000
vertex -6.2699356511613 -1.2469295667546 63.0004478036862
endloop
endfacet
facet normal -0.9142643293672 0.3651938885131 -0.1753686398404
outer loop
vertex -6.2306072400000 -1.3517026700000 62.5772304000000
vertex -6.2975440900000 -1.4899574200000 62.6382914000000
vertex -6.2699356511613 -1.2469295667546 63.0004478036862
endloop
endfacet
facet normal -0.9142658873973 0.3651903402541 -0.1753679062050
outer loop
vertex -6.1720790900000 -1.2063439900000 62.5747972000000
vertex -6.2306072400000 -1.3517026700000 62.5772304000000
vertex -6.2699356511613 -1.2469295667546 63.0004478036862
endloop
endfacet
facet normal -0.9142671985956 0.3651867483866 -0.1753685501308
outer loop
vertex -6.1239788300000 -1.0590260300000 62.6308054000000
vertex -6.1720790900000 -1.2063439900000 62.5747972000000
vertex -6.2699356511613 -1.2469295667546 63.0004478036862
endloop
endfacet
facet normal -0.9142611357519 0.3651926069838 -0.1753879569925
outer loop
vertex -6.4172114200000 -1.4405104600000 63.3650920000000
vertex -6.3712974900000 -1.2968199500000 63.4249444000000
vertex -6.2699356511613 -1.2469295667546 63.0004478036862
endloop
endfacet
facet normal -0.9142599202880 0.3651981152931 -0.1753828233932
outer loop
vertex -6.4446771900000 -1.6322860600000 63.1089403000000
vertex -6.4425315400000 -1.5549747600000 63.2587398000000
vertex -6.2699356511613 -1.2469295667546 63.0004478036862
endloop
endfacet
facet normal -0.9142601891049 0.3651993634613 -0.1753788229669
outer loop
vertex -6.4182697200000 -1.6515190300000 62.9312269000000
vertex -6.4446771900000 -1.6322860600000 63.1089403000000
vertex -6.2699356511613 -1.2469295667546 63.0004478036862
endloop
endfacet
facet normal -0.9142611811674 0.3651989792374 -0.1753744513162
outer loop
vertex -6.3648113400000 -1.5994093100000 62.7610510000000
vertex -6.4182697200000 -1.6515190300000 62.9312269000000
vertex -6.2699356511613 -1.2469295667546 63.0004478036862
endloop
endfacet
facet normal -0.9142640467458 0.3651852881323 -0.1753880217109
outer loop
vertex -6.3107411000000 -1.1444260100000 63.4265872000000
vertex -6.2417649900000 -1.0011039200000 63.3654470000000
vertex -6.2699356511613 -1.2469295667546 63.0004478036862
endloop
endfacet
facet normal -0.9142684983808 0.3651809697074 -0.1753738071435
outer loop
vertex -6.0935354000000 -0.8573808430000 62.8919857000000
vertex -6.0963382500000 -0.9378842440000 62.7389654000000
vertex -6.2699356511613 -1.2469295667546 63.0004478036862
endloop
endfacet
endsolid WRAP
