solid WRAP
facet normal 0.4640256243043 0.8240481771681 -0.3249997256843
outer loop
vertex -34.7447882000000 -1.6392447500000 66.7251775000000
vertex -34.6318516000000 -1.6327379400000 66.9029235000000
vertex -34.2877611153817 -1.9572676102892 66.5713500469157
endloop
endfacet
facet normal 0.4640274618311 0.8240473861359 -0.3249991077974
outer loop
vertex -34.0967148000000 -1.8537820500000 67.1065138000000
vertex -33.9225313000000 -1.9868488100000 67.0178139000000
vertex -34.2877611153817 -1.9572676102892 66.5713500469157
endloop
endfacet
facet normal 0.4640281579978 0.8240466673995 -0.3249999362046
outer loop
vertex -33.8061772000000 -2.1203986200000 66.8453222000000
vertex -33.7775828000000 -2.2218543400000 66.6289048000000
vertex -34.2877611153817 -1.9572676102892 66.5713500469157
endloop
endfacet
facet normal 0.4640280411751 0.8240468592173 -0.3249996166417
outer loop
vertex -33.9225313000000 -1.9868488100000 67.0178139000000
vertex -33.8061772000000 -2.1203986200000 66.8453222000000
vertex -34.2877611153817 -1.9572676102892 66.5713500469157
endloop
endfacet
facet normal 0.4640270153552 0.8240464718688 -0.3250020634106
outer loop
vertex -34.1053696000000 -2.2441526100000 66.1043623000000
vertex -34.2874755000000 -2.1693380100000 66.0340509000000
vertex -34.2877611153817 -1.9572676102892 66.5713500469157
endloop
endfacet
facet normal 0.4640264911270 0.8240467272077 -0.3250021644708
outer loop
vertex -34.2874755000000 -2.1693380100000 66.0340509000000
vertex -34.4787279000000 -2.0608316000000 66.0361068000000
vertex -34.2877611153817 -1.9572676102892 66.5713500469157
endloop
endfacet
facet normal 0.4640272755524 0.8240463861897 -0.3250019091500
outer loop
vertex -33.9436321000000 -2.2817901700000 66.2398554000000
vertex -34.1053696000000 -2.2441526100000 66.1043623000000
vertex -34.2877611153817 -1.9572676102892 66.5713500469157
endloop
endfacet
facet normal 0.4640279805065 0.8240463080301 -0.3250011008121
outer loop
vertex -33.8307354000000 -2.2752484800000 66.4176329000000
vertex -33.9436321000000 -2.2817901700000 66.2398554000000
vertex -34.2877611153817 -1.9572676102892 66.5713500469157
endloop
endfacet
facet normal 0.4640254838602 0.8240474532776 -0.3250017616490
outer loop
vertex -34.6529386000000 -1.9277782200000 66.1247340000000
vertex -34.7694735000000 -1.7940209500000 66.2974936000000
vertex -34.2877611153817 -1.9572676102892 66.5713500469157
endloop
endfacet
facet normal 0.4640252732092 0.8240480594532 -0.3250005254373
outer loop
vertex -34.7979965000000 -1.6925993900000 66.5139262000000
vertex -34.7447882000000 -1.6392447500000 66.7251775000000
vertex -34.2877611153817 -1.9572676102892 66.5713500469157
endloop
endfacet
facet normal 0.4640252339096 0.8240478639849 -0.3250010771631
outer loop
vertex -34.7694735000000 -1.7940209500000 66.2974936000000
vertex -34.7979965000000 -1.6925993900000 66.5139262000000
vertex -34.2877611153817 -1.9572676102892 66.5713500469157
endloop
endfacet
facet normal 0.4640270846247 0.8240476328372 -0.3249990208448
outer loop
vertex -34.2879646000000 -1.7452520100000 67.1086333000000
vertex -34.0967148000000 -1.8537820500000 67.1065138000000
vertex -34.2877611153817 -1.9572676102892 66.5713500469157
endloop
endfacet
facet normal 0.4640263616449 0.8240479850318 -0.3249991600969
outer loop
vertex -34.4700790000000 -1.6704106900000 67.0383776000000
vertex -34.2879646000000 -1.7452520100000 67.1086333000000
vertex -34.2877611153817 -1.9572676102892 66.5713500469157
endloop
endfacet
facet normal 0.4640258565298 0.8240481513953 -0.3249994594669
outer loop
vertex -34.6318516000000 -1.6327379400000 66.9029235000000
vertex -34.4700790000000 -1.6704106900000 67.0383776000000
vertex -34.2877611153817 -1.9572676102892 66.5713500469157
endloop
endfacet
facet normal 0.4640280936170 0.8240463459959 -0.3250008430529
outer loop
vertex -33.7775828000000 -2.2218543400000 66.6289048000000
vertex -33.8307354000000 -2.2752484800000 66.4176329000000
vertex -34.2877611153817 -1.9572676102892 66.5713500469157
endloop
endfacet
facet normal 0.4640257478104 0.8240472132770 -0.3250019933159
outer loop
vertex -34.4787279000000 -2.0608316000000 66.0361068000000
vertex -34.6529386000000 -1.9277782200000 66.1247340000000
vertex -34.2877611153817 -1.9572676102892 66.5713500469157
endloop
endfacet
endsolid WRAP
