solid WRAP
facet normal 0.6331327560141 -0.7683654422369 0.0935813038920
outer loop
vertex 166.1108434200358 80.7173140347079 17.3767739906974
vertex 166.0221219062805 80.6058272719632 17.0616460964297
vertex 166.3655787706375 80.8888077735901 17.0614179223776
endloop
endfacet
facet normal 0.6331786623888 -0.7683246451124 0.0936056686769
outer loop
vertex 165.8371388912219 80.5038101971149 17.4755640328002
vertex 165.6854897738000 80.3432576358318 17.1835357322223
vertex 166.0221219062805 80.6058272719632 17.0616460964297
endloop
endfacet
facet normal 0.6331893391442 -0.7683201958849 0.0935699598669
outer loop
vertex 165.5428037047555 80.2732892334621 17.5745710730624
vertex 165.4437482357523 80.1608972251735 17.3220094293356
vertex 165.6854897738000 80.3432576358318 17.1835357322223
endloop
endfacet
facet normal 0.6332006226668 -0.7683147957954 0.0935379389135
outer loop
vertex 165.2796193957311 80.0607241690141 17.6102565601237
vertex 165.2358844876254 79.9828991293925 17.2670679165350
vertex 165.4437482357523 80.1608972251735 17.3220094293356
endloop
endfacet
facet normal 0.6331839212484 -0.7683315746694 0.0935131714709
outer loop
vertex 165.0235280394583 79.8479989171030 17.5965679809273
vertex 164.9829745292983 79.7684900462503 17.2178903593476
vertex 165.2358844876254 79.9828991293925 17.2670679165350
endloop
endfacet
facet normal 0.6331832356881 -0.7683322329934 0.0935124044545
outer loop
vertex 164.7597625851507 79.6267315745389 17.5645444542027
vertex 164.7227257490283 79.5491337776187 17.1777531503281
vertex 164.9829745292983 79.7684900462503 17.2178903593476
endloop
endfacet
facet normal 0.6331429725592 -0.7683766030771 0.0934204053864
outer loop
vertex 164.5136848091795 79.4182159006596 17.5177063792944
vertex 164.4601598381916 79.3299004435575 17.1540752052550
vertex 164.7227257490283 79.5491337776187 17.1777531503281
endloop
endfacet
facet normal 0.6331103441432 -0.7684011691033 0.0934394748458
outer loop
vertex 164.2508134245979 79.2051218450016 17.5464078784273
vertex 164.1930118202968 79.1065841913197 17.1277234330862
vertex 164.4601598381916 79.3299004435575 17.1540752052550
endloop
endfacet
facet normal 0.6331556748054 -0.7683599610209 0.0934711814505
outer loop
vertex 164.0083342790426 78.9929516613501 17.4446012824561
vertex 163.9125794172172 78.8743346929552 17.1181606128954
vertex 164.1930118202968 79.1065841913197 17.1277234330862
endloop
endfacet
facet normal 0.6331734323864 -0.7683426297122 0.0934933574482
outer loop
vertex 163.7252047657816 78.7720605731000 17.5466304644871
vertex 163.6154204607050 78.6297731101646 17.1207925304770
vertex 163.9125794172172 78.8743346929552 17.1181606128954
endloop
endfacet
facet normal 0.6331068278507 -0.7683975442678 0.0934930932853
outer loop
vertex 163.4658724069591 78.5455740988405 17.4414748325979
vertex 163.3227020502339 78.3934108913229 17.1603877097688
vertex 163.6154204607050 78.6297731101646 17.1207925304770
endloop
endfacet
facet normal 0.6331223593102 -0.7683799783592 0.0935322778411
outer loop
vertex 163.2334589958244 78.3643797040012 17.5259811804196
vertex 163.0866900086438 78.2104581594449 17.2549784183476
vertex 163.3227020502339 78.3934108913229 17.1603877097688
endloop
endfacet
facet normal 0.6331275522295 -0.7683704430864 0.0935754497672
outer loop
vertex 162.9619747400355 78.1436599791157 17.5503008067670
vertex 162.8336831927264 77.9885426163656 17.1446101740038
vertex 163.0866900086438 78.2104581594449 17.2549784183476
endloop
endfacet
facet normal 0.6331067461984 -0.7683866871732 0.0935828343929
outer loop
vertex 162.6571565866470 77.8902322053909 17.5316445529461
vertex 162.6012325286865 77.7869001030922 17.0615464448929
vertex 162.8336831927264 77.9885426163656 17.1446101740038
endloop
endfacet
facet normal 0.6331388057369 -0.7683636555816 0.0935550396890
outer loop
vertex 166.0142987966538 80.4398953914642 15.7520063221455
vertex 166.2096530199051 80.6486755609512 16.1446388810873
vertex 165.9171953797873 80.4125219583707 16.1843420937373
endloop
endfacet
facet normal 0.6331477473730 -0.7683559838237 0.0935575337361
outer loop
vertex 165.9171953797873 80.4125219583707 16.1843420937373
vertex 165.7723933458257 80.2467241883509 15.8026451244453
vertex 166.0142987966538 80.4398953914642 15.7520063221455
endloop
endfacet
facet normal 0.6331385617403 -0.7683627697247 0.0935639660260
outer loop
vertex 165.7723933458257 80.2467241883509 15.8026451244453
vertex 165.9171953797873 80.4125219583707 16.1843420937373
vertex 165.6454950571558 80.1683366299315 16.0176223141804
endloop
endfacet
facet normal 0.6331491445820 -0.7683528479249 0.0935738307478
outer loop
vertex 165.6454950571558 80.1683366299315 16.0176223141804
vertex 165.5026897787941 80.0086036324537 15.6722879036408
vertex 165.7723933458257 80.2467241883509 15.8026451244453
endloop
endfacet
facet normal 0.6331525950884 -0.7683503207063 0.0935712349141
outer loop
vertex 165.5026897787941 80.0086036324537 15.6722879036408
vertex 165.6454950571558 80.1683366299315 16.0176223141804
vertex 165.3841957450482 79.9679830670499 16.1405298858455
endloop
endfacet
facet normal 0.6331276012022 -0.7683719143548 0.0935630366475
outer loop
vertex 165.3841957450482 79.9679830670499 16.1405298858455
vertex 165.1992648840945 79.7755382955394 15.8115075901577
vertex 165.5026897787941 80.0086036324537 15.6722879036408
endloop
endfacet
facet normal 0.6330519100907 -0.7684252916255 0.0936368000349
outer loop
vertex 165.1992648840945 79.7755382955394 15.8115075901577
vertex 165.3841957450482 79.9679830670499 16.1405298858455
vertex 165.0757044553330 79.7142945230220 16.1442710087130
endloop
endfacet
facet normal 0.6329991345471 -0.7684722060243 0.0936085692167
outer loop
vertex 165.0757044553330 79.7142945230220 16.1442710087130
vertex 164.9805754423035 79.6048715710782 15.8892525360272
vertex 165.1992648840945 79.7755382955394 15.8115075901577
endloop
endfacet
facet normal 0.6330834329252 -0.7684098487865 0.0935503674152
outer loop
vertex 164.9805754423035 79.6048715710782 15.8892525360272
vertex 165.0757044553330 79.7142945230220 16.1442710087130
vertex 164.8240983486318 79.5043297111935 16.1223430185942
endloop
endfacet
facet normal 0.6331538977745 -0.7683424872041 0.0936267274339
outer loop
vertex 164.8240983486318 79.5043297111935 16.1223430185942
vertex 164.7860407829569 79.4336013495949 15.7992802559761
vertex 164.9805754423035 79.6048715710782 15.8892525360272
endloop
endfacet
facet normal 0.6331639958239 -0.7683345231957 0.0936237942935
outer loop
vertex 164.7860407829569 79.4336013495949 15.7992802559761
vertex 164.8240983486318 79.5043297111935 16.1223430185942
vertex 164.5768731832487 79.2940184474005 16.0683467984555
endloop
endfacet
facet normal 0.6331606820887 -0.7683377732770 0.0936195322183
outer loop
vertex 164.5768731832487 79.2940184474005 16.0683467984555
vertex 164.5412519574148 79.2220719158638 15.7187907024721
vertex 164.7860407829569 79.4336013495949 15.7992802559761
endloop
endfacet
facet normal 0.6331634271742 -0.7683355997331 0.0936188051183
outer loop
vertex 164.5412519574148 79.2220719158638 15.7187907024721
vertex 164.5768731832487 79.2940184474005 16.0683467984555
vertex 164.3230393528936 79.0771655738356 16.0053521394605
endloop
endfacet
facet normal 0.6331383133599 -0.7683601358009 0.0935872740696
outer loop
vertex 164.3230393528936 79.0771655738356 16.0053521394605
vertex 164.2906814813634 79.0094360709200 15.6681947410098
vertex 164.5412519574148 79.2220719158638 15.7187907024721
endloop
endfacet
facet normal 0.6331795084048 -0.7683274695297 0.0935767583452
outer loop
vertex 164.2906814813634 79.0094360709200 15.6681947410098
vertex 164.3230393528936 79.0771655738356 16.0053521394605
vertex 164.1193777322827 78.8992419838905 15.9225407988046
endloop
endfacet
facet normal 0.6331734784152 -0.7683332377747 0.0935701980456
outer loop
vertex 164.1193777322827 78.8992419838905 15.9225407988046
vertex 164.0418469905995 78.8031890988430 15.6584586948156
vertex 164.2906814813634 79.0094360709200 15.6681947410098
endloop
endfacet
facet normal 0.6332016916594 -0.7683119388051 0.0935541681021
outer loop
vertex 164.0418469905995 78.8031890988430 15.6584586948156
vertex 164.1193777322827 78.8992419838905 15.9225407988046
vertex 163.8846099376625 78.7142924964552 15.9926228225267
endloop
endfacet
facet normal 0.6331966488842 -0.7683165324839 0.0935505732412
outer loop
vertex 163.8846099376625 78.7142924964552 15.9926228225267
vertex 163.7687832117329 78.5821452736926 15.6912906095439
vertex 164.0418469905995 78.8031890988430 15.6584586948156
endloop
endfacet
facet normal 0.6331701235460 -0.7683361054165 0.0935693526863
outer loop
vertex 163.7687832117329 78.5821452736926 15.6912906095439
vertex 163.8846099376625 78.7142924964552 15.9926228225267
vertex 163.6076569557829 78.4916207194861 16.0382743924892
endloop
endfacet
facet normal 0.6331564748005 -0.7683485190382 0.0935597761326
outer loop
vertex 163.6076569557829 78.4916207194861 16.0382743924892
vertex 163.4853035212274 78.3571675420234 15.7621083781123
vertex 163.7687832117329 78.5821452736926 15.6912906095439
endloop
endfacet
facet normal 0.6331532687689 -0.7683508498139 0.0935623312956
outer loop
vertex 163.4853035212274 78.3571675420234 15.7621083781123
vertex 163.6076569557829 78.4916207194861 16.0382743924892
vertex 163.3304208517217 78.2705657184302 16.0990376025487
endloop
endfacet
facet normal 0.6331515665034 -0.7683523962358 0.0935611513019
outer loop
vertex 163.3304208517217 78.2705657184302 16.0990376025487
vertex 163.2433831691742 78.1693011522755 15.8564280718503
vertex 163.4853035212274 78.3571675420234 15.7621083781123
endloop
endfacet
facet normal 0.6331573754834 -0.7683480823931 0.0935572667077
outer loop
vertex 163.2433831691742 78.1693011522755 15.8564280718503
vertex 163.3304208517217 78.2705657184302 16.0990376025487
vertex 163.0221903324287 78.0218243599151 16.1422034725518
endloop
endfacet
facet normal 0.6331576056214 -0.7683478568878 0.0935575612106
outer loop
vertex 163.0221903324287 78.0218243599151 16.1422034725518
vertex 163.0509793758606 77.9980830848448 15.7523946836564
vertex 163.2433831691742 78.1693011522755 15.8564280718503
endloop
endfacet
facet normal 0.6331293267311 -0.7683712401469 0.0935568968495
outer loop
vertex 163.0509793758606 77.9980830848448 15.7523946836564
vertex 163.0221903324287 78.0218243599151 16.1422034725518
vertex 162.7285033464432 77.7754262089729 16.1060392856598
endloop
endfacet
facet normal 0.6331302304942 -0.7683703249505 0.0935582971726
outer loop
vertex 162.7285033464432 77.7754262089729 16.1060392856598
vertex 162.8874838352203 77.8511017560959 15.6516861170530
vertex 163.0509793758606 77.9980830848448 15.7523946836564
endloop
endfacet
facet normal 0.6332141914124 -0.7683257458213 0.0933559644695
outer loop
vertex 164.8387759923935 79.3439671397209 14.7068602964282
vertex 165.1776880025864 79.6446800231934 14.8829771205783
vertex 165.1212051510891 79.6128325164351 15.0039815343952
endloop
endfacet
facet normal 0.6330721943151 -0.7684163599633 0.0935729369303
outer loop
vertex 165.1212051510891 79.6128325164351 15.0039815343952
vertex 164.9295464158183 79.4693529605864 15.1224108412720
vertex 164.8387759923935 79.3439671397209 14.7068602964282
endloop
endfacet
facet normal 0.6330718012116 -0.7684168307523 0.0935717303852
outer loop
vertex 164.9295464158183 79.4693529605864 15.1224108412720
vertex 165.1212051510891 79.6128325164351 15.0039815343952
vertex 165.1614159345751 79.6706713736111 15.2069064789018
endloop
endfacet
facet normal 0.6330586437379 -0.7684218237466 0.0936197328489
outer loop
vertex 165.1614159345751 79.6706713736111 15.2069064789018
vertex 165.0219634175443 79.5744992792629 15.3605160302988
vertex 164.9295464158183 79.4693529605864 15.1224108412720
endloop
endfacet
facet normal 0.6330801637234 -0.7684000524477 0.0936529001064
outer loop
vertex 165.0219634175443 79.5744992792629 15.3605160302988
vertex 165.1614159345751 79.6706713736111 15.2069064789018
vertex 165.2324497700271 79.7596909105955 15.4571123420766
endloop
endfacet
facet normal 0.6330572278071 -0.7684104295122 0.0937227727830
outer loop
vertex 165.2324497700271 79.7596909105955 15.4571123420766
vertex 165.0018692017241 79.5891694724604 15.6165212391244
vertex 165.0219634175443 79.5744992792629 15.3605160302988
endloop
endfacet
facet normal 0.6330254424178 -0.7684469873034 0.0936376898264
outer loop
vertex 165.0018692017241 79.5891694724604 15.6165212391244
vertex 165.2324497700271 79.7596909105955 15.4571123420766
vertex 165.1992648840945 79.7755382955394 15.8115075901577
endloop
endfacet
facet normal 0.6330081651277 -0.7684578254789 0.0936655397781
outer loop
vertex 165.1992648840945 79.7755382955394 15.8115075901577
vertex 164.9805754423035 79.6048715710782 15.8892525360272
vertex 165.0018692017241 79.5891694724604 15.6165212391244
endloop
endfacet
facet normal 0.6331539183907 -0.7683523645743 0.0935454941707
outer loop
vertex 163.3780598640442 78.1613290309906 14.8796122521162
vertex 163.7287437915802 78.4249305725098 14.6711785346270
vertex 163.6024713516218 78.3635787665968 15.0219178758553
endloop
endfacet
facet normal 0.6331427756917 -0.7683583679646 0.0935715980847
outer loop
vertex 163.6024713516218 78.3635787665968 15.0219178758553
vertex 163.4067818522347 78.2245323061952 15.2042582631036
vertex 163.3780598640442 78.1613290309906 14.8796122521162
endloop
endfacet
facet normal 0.6331387839543 -0.7683625690214 0.0935641105325
outer loop
vertex 163.4067818522347 78.2245323061952 15.2042582631036
vertex 163.6024713516218 78.3635787665968 15.0219178758553
vertex 163.6300384998464 78.4277468919878 15.3623321093626
endloop
endfacet
facet normal 0.6331432290313 -0.7683600629489 0.0935546107733
outer loop
vertex 163.6300384998464 78.4277468919878 15.3623321093626
vertex 163.3204743265857 78.1928040087152 15.5277727171743
vertex 163.4067818522347 78.2245323061952 15.2042582631036
endloop
endfacet
facet normal 0.6331486553935 -0.7683531616222 0.0935745649125
outer loop
vertex 163.3204743265857 78.1928040087152 15.5277727171743
vertex 163.6300384998464 78.4277468919878 15.3623321093626
vertex 163.4853035212274 78.3571675420234 15.7621083781123
endloop
endfacet
facet normal 0.6331530481548 -0.7683501733608 0.0935693791184
outer loop
vertex 163.4853035212274 78.3571675420234 15.7621083781123
vertex 163.2433831691742 78.1693011522755 15.8564280718503
vertex 163.3204743265857 78.1928040087152 15.5277727171743
endloop
endfacet
facet normal 0.6331474651042 -0.7683572517935 0.0935490301848
outer loop
vertex 165.3841957450482 79.9679830670499 16.1405298858455
vertex 165.6454950571558 80.1683366299315 16.0176223141804
vertex 165.6391397118995 80.1995582878732 16.3170723242558
endloop
endfacet
facet normal 0.6331429902367 -0.7683597529096 0.0935587730940
outer loop
vertex 165.6391397118995 80.1995582878732 16.3170723242558
vertex 165.4449775815934 80.0715945661636 16.5801178662690
vertex 165.3841957450482 79.9679830670499 16.1405298858455
endloop
endfacet
facet normal 0.6331458565283 -0.7683569684603 0.0935622433440
outer loop
vertex 165.4449775815934 80.0715945661636 16.5801178662690
vertex 165.6391397118995 80.1995582878732 16.3170723242558
vertex 165.7901853324120 80.3700610995293 16.6951427235915
endloop
endfacet
facet normal 0.6331597904818 -0.7683521113023 0.0935078219955
outer loop
vertex 165.7901853324120 80.3700610995293 16.6951427235915
vertex 165.4701828956249 80.1415853202236 16.9845605267369
vertex 165.4449775815934 80.0715945661636 16.5801178662690
endloop
endfacet
facet normal 0.6331916036886 -0.7683183692870 0.0935696341465
outer loop
vertex 165.4701828956249 80.1415853202236 16.9845605267369
vertex 165.7901853324120 80.3700610995293 16.6951427235915
vertex 165.6854897738000 80.3432576358318 17.1835357322223
endloop
endfacet
facet normal 0.6331900360304 -0.7683193353899 0.0935723096748
outer loop
vertex 165.6854897738000 80.3432576358318 17.1835357322223
vertex 165.4437482357523 80.1608972251735 17.3220094293356
vertex 165.4701828956249 80.1415853202236 16.9845605267369
endloop
endfacet
facet normal 0.6331534023807 -0.7683505188701 0.0935641448733
outer loop
vertex 163.3304208517217 78.2705657184302 16.0990376025487
vertex 163.6076569557829 78.4916207194861 16.0382743924892
vertex 163.4539440274487 78.4010253846610 16.3344871252846
endloop
endfacet
facet normal 0.6331480754839 -0.7683543121613 0.0935690413229
outer loop
vertex 163.4539440274487 78.4010253846610 16.3344871252846
vertex 163.1598174572098 78.1740434468059 16.4608443155974
vertex 163.3304208517217 78.2705657184302 16.0990376025487
endloop
endfacet
facet normal 0.6331440854032 -0.7683599681955 0.0935495932300
outer loop
vertex 163.1598174572098 78.1740434468059 16.4608443155974
vertex 163.4539440274487 78.4010253846610 16.3344871252846
vertex 163.4516268968618 78.4461833536856 16.7210698128315
endloop
endfacet
facet normal 0.6331488975958 -0.7683570334612 0.0935411278737
outer loop
vertex 163.4516268968618 78.4461833536856 16.7210698128315
vertex 163.0789116024953 78.1593248248118 16.8875688687091
vertex 163.1598174572098 78.1740434468059 16.4608443155974
endloop
endfacet
facet normal 0.6331413845451 -0.7683674574238 0.0935063503103
outer loop
vertex 163.0789116024953 78.1593248248118 16.8875688687091
vertex 163.4516268968618 78.4461833536856 16.7210698128315
vertex 163.3227020502339 78.3934108913229 17.1603877097688
endloop
endfacet
facet normal 0.6331226013095 -0.7683796214215 0.0935335720219
outer loop
vertex 163.3227020502339 78.3934108913229 17.1603877097688
vertex 163.0866900086438 78.2104581594449 17.2549784183476
vertex 163.0789116024953 78.1593248248118 16.8875688687091
endloop
endfacet
facet normal 0.6331438493329 -0.7683585375562 0.0935629404005
outer loop
vertex 163.6300384998464 78.4277468919878 15.3623321093626
vertex 163.6024713516218 78.3635787665968 15.0219178758553
vertex 163.8654246926459 78.5768255591419 14.9937304668113
endloop
endfacet
facet normal 0.6331708866080 -0.7683328913569 0.0935905786454
outer loop
vertex 163.8654246926459 78.5768255591419 14.9937304668113
vertex 163.9518141746788 78.6901041865420 15.3392395004651
vertex 163.6300384998464 78.4277468919878 15.3623321093626
endloop
endfacet
facet normal 0.6331784743710 -0.7683271006922 0.0935867829082
outer loop
vertex 163.9518141746788 78.6901041865420 15.3392395004651
vertex 163.8654246926459 78.5768255591419 14.9937304668113
vertex 164.1716137528499 78.8285657763508 14.9888847954536
endloop
endfacet
facet normal 0.6331777057930 -0.7683278278105 0.0935860133708
outer loop
vertex 164.1716137528499 78.8285657763508 14.9888847954536
vertex 164.2249301075953 78.9162628352651 15.3481410816347
vertex 163.9518141746788 78.6901041865420 15.3392395004651
endloop
endfacet
facet normal 0.6331544031436 -0.7683460673158 0.0935939240557
outer loop
vertex 164.2249301075953 78.9162628352651 15.3481410816347
vertex 164.1716137528499 78.8285657763508 14.9888847954536
vertex 164.4026190042509 79.0289826691152 15.0714493356556
endloop
endfacet
facet normal 0.6331539227524 -0.7683465233929 0.0935934297544
outer loop
vertex 164.4026190042509 79.0289826691152 15.0714493356556
vertex 164.4826754927664 79.1321508586367 15.3768216259245
vertex 164.2249301075953 78.9162628352651 15.3481410816347
endloop
endfacet
facet normal 0.6331532131495 -0.7683470632609 0.0935937981752
outer loop
vertex 164.4826754927664 79.1321508586367 15.3768216259245
vertex 164.4026190042509 79.0289826691152 15.0714493356556
vertex 164.6519750356670 79.2317464947703 15.0491446255963
endloop
endfacet
facet normal 0.6331321035236 -0.7683665062555 0.0935769819586
outer loop
vertex 164.6519750356670 79.2317464947703 15.0491446255963
vertex 164.7754833102297 79.3797671794890 15.4289077035514
vertex 164.4826754927664 79.1321508586367 15.3768216259245
endloop
endfacet
facet normal 0.6330674315029 -0.7684149303760 0.0936168892114
outer loop
vertex 164.7754833102297 79.3797671794890 15.4289077035514
vertex 164.6519750356670 79.2317464947703 15.0491446255963
vertex 164.9295464158183 79.4693529605864 15.1224108412720
endloop
endfacet
facet normal 0.6330651229938 -0.7684170490778 0.0936151095467
outer loop
vertex 164.9295464158183 79.4693529605864 15.1224108412720
vertex 165.0219634175443 79.5744992792629 15.3605160302988
vertex 164.7754833102297 79.3797671794890 15.4289077035514
endloop
endfacet
facet normal 0.6331782315207 -0.7683321998510 0.0935465541879
outer loop
vertex 163.4516268968618 78.4461833536856 16.7210698128315
vertex 163.4539440274487 78.4010253846610 16.3344871252846
vertex 163.7111678719467 78.6151066422782 16.3517724722624
endloop
endfacet
facet normal 0.6331621427305 -0.7683476977726 0.0935281580083
outer loop
vertex 163.7111678719467 78.6151066422782 16.3517724722624
vertex 163.8109385967343 78.7427425384566 16.7248975485670
vertex 163.4516268968618 78.4461833536856 16.7210698128315
endloop
endfacet
facet normal 0.6331668157590 -0.7683441468635 0.0935256938081
outer loop
vertex 163.8109385967343 78.7427425384566 16.7248975485670
vertex 163.7111678719467 78.6151066422782 16.3517724722624
vertex 164.0475168824214 78.8859687745598 16.2999182939831
endloop
endfacet
facet normal 0.6331576263791 -0.7683526926419 0.0935176981533
outer loop
vertex 164.0475168824214 78.8859687745598 16.2999182939831
vertex 164.1208827495584 78.9993740618198 16.7349493130917
vertex 163.8109385967343 78.7427425384566 16.7248975485670
endloop
endfacet
facet normal 0.6331680866786 -0.7683445459443 0.0935138103673
outer loop
vertex 164.1208827495584 78.9993740618198 16.7349493130917
vertex 164.0475168824214 78.8859687745598 16.2999182939831
vertex 164.3508747220062 79.1456103324892 16.3792399689058
endloop
endfacet
facet normal 0.6331398067869 -0.7683714189906 0.0934844775361
outer loop
vertex 164.3508747220062 79.1456103324892 16.3792399689058
vertex 164.4046604633321 79.2370364069899 16.7664196342336
vertex 164.1208827495584 78.9993740618198 16.7349493130917
endloop
endfacet
facet normal 0.6331779758333 -0.7683414714616 0.0934721036025
outer loop
vertex 164.4046604633321 79.2370364069899 16.7664196342336
vertex 164.3508747220062 79.1456103324892 16.3792399689058
vertex 164.6217033267163 79.3744437396557 16.4256654679207
endloop
endfacet
facet normal 0.6331357602811 -0.7683814916503 0.0934290765373
outer loop
vertex 164.6217033267163 79.3744437396557 16.4256654679207
vertex 164.6743863821083 79.4630572199857 16.7974280193022
vertex 164.4046604633321 79.2370364069899 16.7664196342336
endloop
endfacet
facet normal 0.6331806447480 -0.7683462986044 0.0934143272595
outer loop
vertex 164.6743863821083 79.4630572199857 16.7974280193022
vertex 164.6217033267163 79.3744437396557 16.4256654679207
vertex 164.8857295513331 79.5963890850651 16.4615763351605
endloop
endfacet
facet normal 0.6331596972005 -0.7683661195817 0.0933932766314
outer loop
vertex 164.8857295513331 79.5963890850651 16.4615763351605
vertex 164.9412587285433 79.6873606741677 16.8335586783854
vertex 164.6743863821083 79.4630572199857 16.7974280193022
endloop
endfacet
facet normal 0.6330923485348 -0.7684188233959 0.0934162195637
outer loop
vertex 164.9412587285433 79.6873606741677 16.8335586783854
vertex 164.8857295513331 79.5963890850651 16.4615763351605
vertex 165.1599407196684 79.8268876970027 16.4992408824958
endloop
endfacet
facet normal 0.6331493509057 -0.7683645677622 0.0934761491255
outer loop
vertex 165.1599407196684 79.8268876970027 16.4992408824958
vertex 165.2083396911408 79.9143277108456 16.8901644647264
vertex 164.9412587285433 79.6873606741677 16.8335586783854
endloop
endfacet
facet normal 0.6331341677832 -0.7683765246826 0.0934807033680
outer loop
vertex 165.2083396911408 79.9143277108456 16.8901644647264
vertex 165.1599407196684 79.8268876970027 16.4992408824958
vertex 165.4449775815934 80.0715945661636 16.5801178662690
endloop
endfacet
facet normal 0.6331562704250 -0.7683549260109 0.0935085284683
outer loop
vertex 165.4449775815934 80.0715945661636 16.5801178662690
vertex 165.4701828956249 80.1415853202236 16.9845605267369
vertex 165.2083396911408 79.9143277108456 16.8901644647264
endloop
endfacet
facet normal 0.6331368653840 -0.7683558777255 0.0936320183290
outer loop
vertex 163.1303802132636 78.3246345818025 17.8969847038317
vertex 163.2767096161845 78.4825831651732 18.2036552578246
vertex 163.0490422248840 78.3081501722336 18.3117166161537
endloop
endfacet
facet normal 0.6330926458943 -0.7683944205739 0.0936147218415
outer loop
vertex 163.4315401315631 78.5658359527623 17.8399188444089
vertex 163.5091379284770 78.6828137934193 18.2753046974682
vertex 163.2767096161845 78.4825831651732 18.2036552578246
endloop
endfacet
facet normal 0.6331357167847 -0.7683494334853 0.0936926474931
outer loop
vertex 163.6819317936897 78.7877775728680 17.9684171454468
vertex 163.7850627303372 78.9118781685714 18.2892186566761
vertex 163.5091379284770 78.6828137934193 18.2753046974682
endloop
endfacet
facet normal 0.6330897199368 -0.7683899190122 0.0936714410630
outer loop
vertex 163.9632135629867 79.0074355900181 17.8690254689187
vertex 164.0554964541714 79.1358463466203 18.2986781002228
vertex 163.7850627303372 78.9118781685714 18.2892186566761
endloop
endfacet
facet normal 0.6331428559774 -0.7683373884647 0.0937431672817
outer loop
vertex 164.2453148961209 79.2502015828980 17.9539192469491
vertex 164.3209680914737 79.3571881950115 18.3198396118911
vertex 164.0554964541714 79.1358463466203 18.2986781002228
endloop
endfacet
facet normal 0.6331288681504 -0.7683482664428 0.0937484814220
outer loop
vertex 164.5146533846393 79.4675908982629 17.9166328163021
vertex 164.5929664373611 79.5826129615165 18.3304501697563
vertex 164.3209680914737 79.3571881950115 18.3198396118911
endloop
endfacet
facet normal 0.6331534605388 -0.7683336825396 0.0937019086404
outer loop
vertex 164.8056358098451 79.7120556235154 17.9548207671303
vertex 164.8757010697324 79.8154063522745 18.3288343253167
vertex 164.5929664373611 79.5826129615165 18.3304501697563
endloop
endfacet
facet normal 0.6331889585648 -0.7683071611835 0.0936795005635
outer loop
vertex 165.0809198617829 79.9394100904429 17.9587500170157
vertex 165.1606485247612 80.0459012388934 18.2932373134861
vertex 164.8757010697324 79.8154063522745 18.3288343253167
endloop
endfacet
facet normal 0.6331909236217 -0.7683079651277 0.0936596229142
outer loop
vertex 165.3538048266761 80.1613070070761 17.9340895265341
vertex 165.4118075966267 80.2440531551625 18.2207413018176
vertex 165.1606485247612 80.0459012388934 18.2932373134861
endloop
endfacet
facet normal 0.6331847145291 -0.7683214348508 0.0935910788240
outer loop
vertex 165.6588912009944 80.4102271795122 17.9132921620635
vertex 165.6059101224017 80.4173350333564 18.3300832288893
vertex 165.4118075966267 80.2440531551625 18.2207413018176
endloop
endfacet
facet normal 0.6331212027820 -0.7683789742049 0.0935483542757
outer loop
vertex 165.8587679267072 80.6366764008697 18.4203442187183
vertex 165.8682674169434 80.6040316820145 18.0879188702221
vertex 166.2207990884781 80.8861777186394 18.0195029824972
endloop
endfacet
facet normal 0.6331303030123 -0.7683715331022 0.0935478835981
outer loop
vertex 165.8682674169434 80.6040316820145 18.0879188702221
vertex 165.8587679267072 80.6366764008697 18.4203442187183
vertex 165.6059101224017 80.4173350333564 18.3300832288893
endloop
endfacet
facet normal 0.6331510754838 -0.7683496183405 0.0935872833761
outer loop
vertex 165.6059101224017 80.4173350333564 18.3300832288893
vertex 165.6588912009944 80.4102271795122 17.9132921620635
vertex 165.8682674169434 80.6040316820145 18.0879188702221
endloop
endfacet
facet normal 0.6331272701343 -0.7683728429883 0.0935576505179
outer loop
vertex 166.2207990884781 80.8861777186394 18.0195029824972
vertex 166.0649031400681 80.8131247758865 18.4745173901320
vertex 165.8587679267072 80.6366764008697 18.4203442187183
endloop
endfacet
facet normal 0.6331363784948 -0.7683635714018 0.0935721559508
outer loop
vertex 163.5095179080963 78.7746682763100 19.0268363803625
vertex 163.2643938064575 78.5311535000801 18.6858065426350
vertex 163.6190563440376 78.8184739649251 18.6453759670258
endloop
endfacet
facet normal 0.6331778182370 -0.7683274686146 0.0935882015267
outer loop
vertex 163.6190563440376 78.8184739649251 18.6453759670258
vertex 163.7614369392146 78.9703726768414 18.9291266724112
vertex 163.5095179080963 78.7746682763100 19.0268363803625
endloop
endfacet
facet normal 0.6331682411277 -0.7683343283052 0.0935966792948
outer loop
vertex 163.7614369392146 78.9703726768414 18.9291266724112
vertex 163.6190563440376 78.8184739649251 18.6453759670258
vertex 163.8900786637905 79.0420398116112 18.6471985652474
endloop
endfacet
facet normal 0.6332174711601 -0.7682896348175 0.0936305038417
outer loop
vertex 163.8900786637905 79.0420398116112 18.6471985652474
vertex 163.9881581067897 79.1678167879519 19.0159622580168
vertex 163.7614369392146 78.9703726768414 18.9291266724112
endloop
endfacet
facet normal 0.6331904764972 -0.7683101547687 0.0936446824580
outer loop
vertex 163.9881581067897 79.1678167879519 19.0159622580168
vertex 163.8900786637905 79.0420398116112 18.6471985652474
vertex 164.1413643955794 79.2521983384820 18.6723489314602
endloop
endfacet
facet normal 0.6331346139632 -0.7683607382031 0.0936073532884
outer loop
vertex 164.1413643955794 79.2521983384820 18.6723489314602
vertex 164.2150282859411 79.3539583682943 19.0093871205619
vertex 163.9881581067897 79.1678167879519 19.0159622580168
endloop
endfacet
facet normal 0.6331423715074 -0.7683547718787 0.0936038564021
outer loop
vertex 164.2150282859411 79.3539583682943 19.0093871205619
vertex 164.1413643955794 79.2521983384820 18.6723489314602
vertex 164.3929928540899 79.4630050658576 18.7007421629488
endloop
endfacet
facet normal 0.6331203941199 -0.7683753086113 0.0935839284590
outer loop
vertex 164.3929928540899 79.4630050658576 18.7007421629488
vertex 164.4382849335138 79.5503593981142 19.1115560010076
vertex 164.2150282859411 79.3539583682943 19.0093871205619
endloop
endfacet
facet normal 0.6331112577590 -0.7683825270085 0.0935864706398
outer loop
vertex 164.4382849335138 79.5503593981142 19.1115560010076
vertex 164.3929928540899 79.4630050658576 18.7007421629488
vertex 164.6674126386856 79.6904601156854 18.7117932366903
endloop
endfacet
facet normal 0.6331400133745 -0.7683556788770 0.0936123613721
outer loop
vertex 164.6674126386856 79.6904601156854 18.7117932366903
vertex 164.7576391696148 79.8089541495024 19.0741335975133
vertex 164.4382849335138 79.5503593981142 19.1115560010076
endloop
endfacet
facet normal 0.6331507101527 -0.7683475142112 0.0936070277201
outer loop
vertex 164.7576391696148 79.8089541495024 19.0741335975133
vertex 164.6674126386856 79.6904601156854 18.7117932366903
vertex 164.9677157401683 79.9328722059300 18.6703391375147
endloop
endfacet
facet normal 0.6331716133489 -0.7683282429948 0.0936238167654
outer loop
vertex 164.9677157401683 79.9328722059300 18.6703391375147
vertex 165.0728508828863 80.0550393759920 18.9618878067961
vertex 164.7576391696148 79.8089541495024 19.0741335975133
endloop
endfacet
facet normal 0.6331723365725 -0.7683277061822 0.0936233310245
outer loop
vertex 165.0728508828863 80.0550393759920 18.9618878067961
vertex 164.9677157401683 79.9328722059300 18.6703391375147
vertex 165.2946919201668 80.1928862928634 18.5928344725426
endloop
endfacet
facet normal 0.6331179721324 -0.7683788100706 0.0935715640427
outer loop
vertex 165.2946919201668 80.1928862928634 18.5928344725426
vertex 165.3105393050680 80.2437998354044 18.9036941160623
vertex 165.0728508828863 80.0550393759920 18.9618878067961
endloop
endfacet
facet normal 0.6331238054407 -0.7683741330834 0.0935705006539
outer loop
vertex 165.3105393050680 80.2437998354044 18.9036941160623
vertex 165.2946919201668 80.1928862928634 18.5928344725426
vertex 165.5576676130579 80.4232992231952 18.7055533753977
endloop
endfacet
facet normal 0.6331226742323 -0.7683753738659 0.0935679657218
outer loop
vertex 165.5576676130579 80.4232992231952 18.7055533753977
vertex 165.4472276568555 80.3761184215297 19.0653931350226
vertex 165.3105393050680 80.2437998354044 18.9036941160623
endloop
endfacet
facet normal 0.6331136224742 -0.7683832969976 0.0935641487576
outer loop
vertex 165.4472276568555 80.3761184215297 19.0653931350226
vertex 165.5576676130579 80.4232992231952 18.7055533753977
vertex 165.8421158790588 80.6795954704285 18.8855975866318
endloop
endfacet
facet normal 0.6331067892356 -0.7683926832234 0.0935332977738
outer loop
vertex 165.8421158790588 80.6795954704285 18.8855975866318
vertex 165.5604839324951 80.4898813366890 19.2333683371544
vertex 165.4472276568555 80.3761184215297 19.0653931350226
endloop
endfacet
facet normal 0.6331398481321 -0.7683714879110 0.0934836310410
outer loop
vertex 163.9881581067897 79.1678167879519 19.0159622580168
vertex 164.2150282859411 79.3539583682943 19.0093871205619
vertex 164.1243100166321 79.3411061167717 19.5181611925364
endloop
endfacet
facet normal 0.6331966210123 -0.7683283851889 0.0934533661862
outer loop
vertex 164.1243100166321 79.3411061167717 19.5181611925364
vertex 163.8045758008957 79.0505856275558 19.2960128188133
vertex 163.9881581067897 79.1678167879519 19.0159622580168
endloop
endfacet
facet normal 0.6331172718160 -0.7683803395542 0.0935637425227
outer loop
vertex 165.0728508828863 80.0550393759920 18.9618878067961
vertex 165.3105393050680 80.2437998354044 18.9036941160623
vertex 165.1954352855682 80.1794789731183 19.1543409602843
endloop
endfacet
facet normal 0.6331576855706 -0.7683523736747 0.0935199180460
outer loop
vertex 165.1954352855682 80.1794789731183 19.1543409602843
vertex 164.9311855435087 79.9825489521009 19.3254286422757
vertex 165.0728508828863 80.0550393759920 18.9618878067961
endloop
endfacet
facet normal 0.6331464551926 -0.7683655899543 0.0934873598474
outer loop
vertex 164.9311855435087 79.9825489521009 19.3254286422757
vertex 165.1954352855682 80.1794789731183 19.1543409602843
vertex 165.2261614799500 80.2453085780144 19.4872952997684
endloop
endfacet
facet normal 0.6331438962131 -0.7683668769754 0.0934941124088
outer loop
vertex 165.2261614799500 80.2453085780144 19.4872952997684
vertex 164.8595184087753 79.9604654312134 19.6292698383331
vertex 164.9311855435087 79.9825489521009 19.3254286422757
endloop
endfacet
facet normal 0.6331747626938 -0.7683308333835 0.0935812500446
outer loop
vertex 163.4539440274487 78.4010253846610 16.3344871252846
vertex 163.6076569557829 78.4916207194861 16.0382743924892
vertex 163.7111678719467 78.6151066422782 16.3517724722624
endloop
endfacet
facet normal 0.6331707044381 -0.7683338689000 0.0935837856816
outer loop
vertex 163.6076569557829 78.4916207194861 16.0382743924892
vertex 163.8846099376625 78.7142924964552 15.9926228225267
vertex 163.7111678719467 78.6151066422782 16.3517724722624
endloop
endfacet
facet normal 0.6331687261102 -0.7683356763651 0.0935823311341
outer loop
vertex 163.7111678719467 78.6151066422782 16.3517724722624
vertex 163.8846099376625 78.7142924964552 15.9926228225267
vertex 164.0475168824214 78.8859687745598 16.2999182939831
endloop
endfacet
facet normal 0.6332014258452 -0.7683124213674 0.0935520041483
outer loop
vertex 163.8846099376625 78.7142924964552 15.9926228225267
vertex 164.1193777322827 78.8992419838905 15.9225407988046
vertex 164.0475168824214 78.8859687745598 16.2999182939831
endloop
endfacet
facet normal 0.6331877879443 -0.7683240266854 0.0935489990116
outer loop
vertex 164.1193777322827 78.8992419838905 15.9225407988046
vertex 164.3230393528936 79.0771655738356 16.0053521394605
vertex 164.0475168824214 78.8859687745598 16.2999182939831
endloop
endfacet
facet normal 0.6331674896125 -0.7683446990545 0.0935165949585
outer loop
vertex 164.0475168824214 78.8859687745598 16.2999182939831
vertex 164.3230393528936 79.0771655738356 16.0053521394605
vertex 164.3508747220062 79.1456103324892 16.3792399689058
endloop
endfacet
facet normal 0.6331853676065 -0.7683304456153 0.0935126547025
outer loop
vertex 164.3230393528936 79.0771655738356 16.0053521394605
vertex 164.5768731832487 79.2940184474005 16.0683467984555
vertex 164.3508747220062 79.1456103324892 16.3792399689058
endloop
endfacet
facet normal 0.6331736696222 -0.7683417791260 0.0934987408831
outer loop
vertex 164.3508747220062 79.1456103324892 16.3792399689058
vertex 164.5768731832487 79.2940184474005 16.0683467984555
vertex 164.6217033267163 79.3744437396557 16.4256654679207
endloop
endfacet
facet normal 0.6331143078346 -0.7683822580273 0.0935680434978
outer loop
vertex 165.4449775815934 80.0715945661636 16.5801178662690
vertex 165.1599407196684 79.8268876970027 16.4992408824958
vertex 165.3841957450482 79.9679830670499 16.1405298858455
endloop
endfacet
facet normal 0.6331885183075 -0.7683300892864 0.0934942467786
outer loop
vertex 164.5768731832487 79.2940184474005 16.0683467984555
vertex 164.8240983486318 79.5043297111935 16.1223430185942
vertex 164.6217033267163 79.3744437396557 16.4256654679207
endloop
endfacet
facet normal 0.6330584400051 -0.7684350674900 0.0935123445858
outer loop
vertex 165.3841957450482 79.9679830670499 16.1405298858455
vertex 165.1599407196684 79.8268876970027 16.4992408824958
vertex 165.0757044553330 79.7142945230220 16.1442710087130
endloop
endfacet
facet normal 0.6331719117702 -0.7683459491327 0.0934763745372
outer loop
vertex 164.6217033267163 79.3744437396557 16.4256654679207
vertex 164.8240983486318 79.5043297111935 16.1223430185942
vertex 164.8857295513331 79.5963890850651 16.4615763351605
endloop
endfacet
facet normal 0.6330802216018 -0.7684183951923 0.0935018873963
outer loop
vertex 165.1599407196684 79.8268876970027 16.4992408824958
vertex 164.8857295513331 79.5963890850651 16.4615763351605
vertex 165.0757044553330 79.7142945230220 16.1442710087130
endloop
endfacet
facet normal 0.6330880273906 -0.7684110639457 0.0935092849960
outer loop
vertex 164.8857295513331 79.5963890850651 16.4615763351605
vertex 164.8240983486318 79.5043297111935 16.1223430185942
vertex 165.0757044553330 79.7142945230220 16.1442710087130
endloop
endfacet
facet normal 0.6331578460348 -0.7683454105311 0.0935760232130
outer loop
vertex 163.3304208517217 78.2705657184302 16.0990376025487
vertex 163.1598174572098 78.1740434468059 16.4608443155974
vertex 163.0221903324287 78.0218243599151 16.1422034725518
endloop
endfacet
facet normal 0.6331278112437 -0.7683711035793 0.0935682735444
outer loop
vertex 162.7285033464432 77.7754262089729 16.1060392856598
vertex 163.0221903324287 78.0218243599151 16.1422034725518
vertex 162.6142114400864 77.7387917041779 16.5785551071167
endloop
endfacet
facet normal 0.6331409368690 -0.7683577375314 0.0935892153843
outer loop
vertex 163.0221903324287 78.0218243599151 16.1422034725518
vertex 163.1598174572098 78.1740434468059 16.4608443155974
vertex 162.6142114400864 77.7387917041779 16.5785551071167
endloop
endfacet
facet normal 0.6331415502711 -0.7683643157649 0.0935310407269
outer loop
vertex 163.0866900086438 78.2104581594449 17.2549784183476
vertex 162.8336831927264 77.9885426163656 17.1446101740038
vertex 163.0789116024953 78.1593248248118 16.8875688687091
endloop
endfacet
facet normal 0.6331373141779 -0.7683668871294 0.0935385918144
outer loop
vertex 163.1598174572098 78.1740434468059 16.4608443155974
vertex 163.0789116024953 78.1593248248118 16.8875688687091
vertex 162.6142114400864 77.7387917041779 16.5785551071167
endloop
endfacet
facet normal 0.6331410383893 -0.7683648393541 0.0935302044890
outer loop
vertex 163.0789116024953 78.1593248248118 16.8875688687091
vertex 162.8336831927264 77.9885426163656 17.1446101740038
vertex 162.6142114400864 77.7387917041779 16.5785551071167
endloop
endfacet
facet normal 0.6331161684435 -0.7683831732151 0.0935479362428
outer loop
vertex 162.6142114400864 77.7387917041779 16.5785551071167
vertex 162.8336831927264 77.9885426163656 17.1446101740038
vertex 162.6012325286865 77.7869001030922 17.0615464448929
endloop
endfacet
facet normal 0.6331519918011 -0.7683510464909 0.0935693573484
outer loop
vertex 163.3780598640442 78.1613290309906 14.8796122521162
vertex 163.4067818522347 78.2245323061952 15.2042582631036
vertex 163.0994677543640 77.9745578765869 15.2310663834214
endloop
endfacet
facet normal 0.6331531670281 -0.7683500711182 0.0935694143135
outer loop
vertex 163.2433831691742 78.1693011522755 15.8564280718503
vertex 163.0509793758606 77.9980830848448 15.7523946836564
vertex 163.3204743265857 78.1928040087152 15.5277727171743
endloop
endfacet
facet normal 0.6331520741199 -0.7683523954583 0.0935577224554
outer loop
vertex 163.4067818522347 78.2245323061952 15.2042582631036
vertex 163.3204743265857 78.1928040087152 15.5277727171743
vertex 163.0994677543640 77.9745578765869 15.2310663834214
endloop
endfacet
facet normal 0.6331493069280 -0.7683542579258 0.0935611536053
outer loop
vertex 163.3204743265857 78.1928040087152 15.5277727171743
vertex 163.0509793758606 77.9980830848448 15.7523946836564
vertex 163.0994677543640 77.9745578765869 15.2310663834214
endloop
endfacet
facet normal 0.6331294984335 -0.7683707142651 0.0935600538319
outer loop
vertex 163.0994677543640 77.9745578765869 15.2310663834214
vertex 163.0509793758606 77.9980830848448 15.7523946836564
vertex 162.8874838352203 77.8511017560959 15.6516861170530
endloop
endfacet
facet normal 0.6330774316830 -0.7684123323412 0.0935705776390
outer loop
vertex 164.9295464158183 79.4693529605864 15.1224108412720
vertex 164.6519750356670 79.2317464947703 15.0491446255963
vertex 164.8387759923935 79.3439671397209 14.7068602964282
endloop
endfacet
facet normal 0.6331437343089 -0.7683613952418 0.0935402480623
outer loop
vertex 163.6024713516218 78.3635787665968 15.0219178758553
vertex 163.7287437915802 78.4249305725098 14.6711785346270
vertex 163.8654246926459 78.5768255591419 14.9937304668113
endloop
endfacet
facet normal 0.6331376597218 -0.7683564730866 0.0936217608669
outer loop
vertex 164.8387759923935 79.3439671397209 14.7068602964282
vertex 164.6519750356670 79.2317464947703 15.0491446255963
vertex 164.4770950078964 79.0335312485695 14.6050509065390
endloop
endfacet
facet normal 0.6331447877919 -0.7683606256192 0.0935394392225
outer loop
vertex 163.7287437915802 78.4249305725098 14.6711785346270
vertex 164.1031205654144 78.7225812673569 14.5821077749133
vertex 163.8654246926459 78.5768255591419 14.9937304668113
endloop
endfacet
facet normal 0.6331531164779 -0.7683450965181 0.0936105963603
outer loop
vertex 164.6519750356670 79.2317464947703 15.0491446255963
vertex 164.4026190042509 79.0289826691152 15.0714493356556
vertex 164.4770950078964 79.0335312485695 14.6050509065390
endloop
endfacet
facet normal 0.6331792790506 -0.7683283876039 0.0935707720544
outer loop
vertex 163.8654246926459 78.5768255591419 14.9937304668113
vertex 164.1031205654144 78.7225812673569 14.5821077749133
vertex 164.1716137528499 78.8285657763508 14.9888847954536
endloop
endfacet
facet normal 0.6331500403824 -0.7683476942889 0.0936100798245
outer loop
vertex 164.4026190042509 79.0289826691152 15.0714493356556
vertex 164.1716137528499 78.8285657763508 14.9888847954536
vertex 164.4770950078964 79.0335312485695 14.6050509065390
endloop
endfacet
facet normal 0.6331332368636 -0.7683642465772 0.0935878675920
outer loop
vertex 164.1716137528499 78.8285657763508 14.9888847954536
vertex 164.1031205654144 78.7225812673569 14.5821077749133
vertex 164.4770950078964 79.0335312485695 14.6050509065390
endloop
endfacet
facet normal 0.6331583079401 -0.7683445977517 0.0935795714466
outer loop
vertex 163.4853035212274 78.3571675420234 15.7621083781123
vertex 163.6300384998464 78.4277468919878 15.3623321093626
vertex 163.7687832117329 78.5821452736926 15.6912906095439
endloop
endfacet
facet normal 0.6331712307197 -0.7683351522173 0.0935696876997
outer loop
vertex 163.6300384998464 78.4277468919878 15.3623321093626
vertex 163.9518141746788 78.6901041865420 15.3392395004651
vertex 163.7687832117329 78.5821452736926 15.6912906095439
endloop
endfacet
facet normal 0.6331971674305 -0.7683112420410 0.0935905043869
outer loop
vertex 163.7687832117329 78.5821452736926 15.6912906095439
vertex 163.9518141746788 78.6901041865420 15.3392395004651
vertex 164.0418469905995 78.8031890988430 15.6584586948156
endloop
endfacet
facet normal 0.6331764449841 -0.7683269307827 0.0936019067720
outer loop
vertex 163.9518141746788 78.6901041865420 15.3392395004651
vertex 164.2249301075953 78.9162628352651 15.3481410816347
vertex 164.0418469905995 78.8031890988430 15.6584586948156
endloop
endfacet
facet normal 0.6331712426549 -0.7683318084034 0.0935970601588
outer loop
vertex 164.0418469905995 78.8031890988430 15.6584586948156
vertex 164.2249301075953 78.9162628352651 15.3481410816347
vertex 164.2906814813634 79.0094360709200 15.6681947410098
endloop
endfacet
facet normal 0.6331524442464 -0.7683463145993 0.0936051450855
outer loop
vertex 164.2249301075953 78.9162628352651 15.3481410816347
vertex 164.4826754927664 79.1321508586367 15.3768216259245
vertex 164.2906814813634 79.0094360709200 15.6681947410098
endloop
endfacet
facet normal 0.6331378776959 -0.7683601994256 0.0935896990346
outer loop
vertex 164.2906814813634 79.0094360709200 15.6681947410098
vertex 164.4826754927664 79.1321508586367 15.3768216259245
vertex 164.5412519574148 79.2220719158638 15.7187907024721
endloop
endfacet
facet normal 0.6331294755421 -0.7683667380917 0.0935928576016
outer loop
vertex 164.4826754927664 79.1321508586367 15.3768216259245
vertex 164.7754833102297 79.3797671794890 15.4289077035514
vertex 164.5412519574148 79.2220719158638 15.7187907024721
endloop
endfacet
facet normal 0.6330770050541 -0.7683940606086 0.0937233871193
outer loop
vertex 165.0219634175443 79.5744992792629 15.3605160302988
vertex 165.0018692017241 79.5891694724604 15.6165212391244
vertex 164.7754833102297 79.3797671794890 15.4289077035514
endloop
endfacet
facet normal 0.6331577871212 -0.7683387676383 0.0936309497544
outer loop
vertex 164.5412519574148 79.2220719158638 15.7187907024721
vertex 164.7754833102297 79.3797671794890 15.4289077035514
vertex 164.7860407829569 79.4336013495949 15.7992802559761
endloop
endfacet
facet normal 0.6331237442204 -0.7683662153664 0.0936359097134
outer loop
vertex 164.7754833102297 79.3797671794890 15.4289077035514
vertex 165.0018692017241 79.5891694724604 15.6165212391244
vertex 164.7860407829569 79.4336013495949 15.7992802559761
endloop
endfacet
facet normal 0.6331397585252 -0.7683489198955 0.0936695439828
outer loop
vertex 164.7860407829569 79.4336013495949 15.7992802559761
vertex 165.0018692017241 79.5891694724604 15.6165212391244
vertex 164.9805754423035 79.6048715710782 15.8892525360272
endloop
endfacet
facet normal 0.6331477764565 -0.7683559074803 0.0935579638960
outer loop
vertex 166.0142987966538 80.4398953914642 15.7520063221455
vertex 165.7723933458257 80.2467241883509 15.8026451244453
vertex 165.7759100198746 80.2009105682373 15.4025964438915
endloop
endfacet
facet normal 0.6331547732975 -0.7683502137318 0.0935573733538
outer loop
vertex 165.7723933458257 80.2467241883509 15.8026451244453
vertex 165.5026897787941 80.0086036324537 15.6722879036408
vertex 165.7759100198746 80.2009105682373 15.4025964438915
endloop
endfacet
facet normal 0.6331458205519 -0.7683469785577 0.0936444897414
outer loop
vertex 165.1992648840945 79.7755382955394 15.8115075901577
vertex 165.2324497700271 79.7596909105955 15.4571123420766
vertex 165.5026897787941 80.0086036324537 15.6722879036408
endloop
endfacet
facet normal 0.6331541860474 -0.7683508229916 0.0935563439794
outer loop
vertex 165.7759100198746 80.2009105682373 15.4025964438915
vertex 165.5026897787941 80.0086036324537 15.6722879036408
vertex 165.4959321022034 79.9343809485435 15.1084521785378
endloop
endfacet
facet normal 0.6331937662820 -0.7683187768887 0.0935516510909
outer loop
vertex 165.5026897787941 80.0086036324537 15.6722879036408
vertex 165.2324497700271 79.7596909105955 15.4571123420766
vertex 165.4959321022034 79.9343809485435 15.1084521785378
endloop
endfacet
facet normal 0.6332151355225 -0.7682979265389 0.0935782465174
outer loop
vertex 165.2324497700271 79.7596909105955 15.4571123420766
vertex 165.1614159345751 79.6706713736111 15.2069064789018
vertex 165.4959321022034 79.9343809485435 15.1084521785378
endloop
endfacet
facet normal 0.6332075235343 -0.7683119092189 0.0935149308501
outer loop
vertex 165.1614159345751 79.6706713736111 15.2069064789018
vertex 165.1212051510891 79.6128325164351 15.0039815343952
vertex 165.4959321022034 79.9343809485435 15.1084521785378
endloop
endfacet
facet normal 0.6332392315201 -0.7683029592161 0.0933736500496
outer loop
vertex 165.1212051510891 79.6128325164351 15.0039815343952
vertex 165.1776880025864 79.6446800231934 14.8829771205783
vertex 165.4959321022034 79.9343809485435 15.1084521785378
endloop
endfacet
facet normal 0.6331446926453 -0.7683595148041 0.0935492072928
outer loop
vertex 165.6454950571558 80.1683366299315 16.0176223141804
vertex 165.9171953797873 80.4125219583707 16.1843420937373
vertex 165.6391397118995 80.1995582878732 16.3170723242558
endloop
endfacet
facet normal 0.6331719697599 -0.7683351745770 0.0935645029815
outer loop
vertex 165.6854897738000 80.3432576358318 17.1835357322223
vertex 165.7901853324120 80.3700610995293 16.6951427235915
vertex 166.0221219062805 80.6058272719632 17.0616460964297
endloop
endfacet
facet normal 0.6331339865072 -0.7683669524139 0.0935605769952
outer loop
vertex 166.3655787706375 80.8888077735901 17.0614179223776
vertex 166.0221219062805 80.6058272719632 17.0616460964297
vertex 166.3396656513214 80.8092653751373 16.5835320949554
endloop
endfacet
facet normal 0.6331474824782 -0.7683557733626 0.0935610547819
outer loop
vertex 165.6391397118995 80.1995582878732 16.3170723242558
vertex 165.9171953797873 80.4125219583707 16.1843420937373
vertex 165.7901853324120 80.3700610995293 16.6951427235915
endloop
endfacet
facet normal 0.6331548778926 -0.7683470145245 0.0935829357948
outer loop
vertex 166.0221219062805 80.6058272719632 17.0616460964297
vertex 165.7901853324120 80.3700610995293 16.6951427235915
vertex 166.3396656513214 80.8092653751373 16.5835320949554
endloop
endfacet
facet normal 0.6331536076402 -0.7683504870431 0.0935630172281
outer loop
vertex 165.7901853324120 80.3700610995293 16.6951427235915
vertex 165.9171953797873 80.4125219583707 16.1843420937373
vertex 166.3396656513214 80.8092653751373 16.5835320949554
endloop
endfacet
facet normal 0.6331395152938 -0.7683592255045 0.0935866163273
outer loop
vertex 165.9171953797873 80.4125219583707 16.1843420937373
vertex 166.2096530199051 80.6486755609512 16.1446388810873
vertex 166.3396656513214 80.8092653751373 16.5835320949554
endloop
endfacet
facet normal 0.6331068165080 -0.7683976156953 0.0934925830471
outer loop
vertex 163.3227020502339 78.3934108913229 17.1603877097688
vertex 163.4516268968618 78.4461833536856 16.7210698128315
vertex 163.6154204607050 78.6297731101646 17.1207925304770
endloop
endfacet
facet normal 0.6331674890234 -0.7683531315779 0.0934472901603
outer loop
vertex 163.4516268968618 78.4461833536856 16.7210698128315
vertex 163.8109385967343 78.7427425384566 16.7248975485670
vertex 163.6154204607050 78.6297731101646 17.1207925304770
endloop
endfacet
facet normal 0.6331756043382 -0.7683456985897 0.0934534190372
outer loop
vertex 163.6154204607050 78.6297731101646 17.1207925304770
vertex 163.8109385967343 78.7427425384566 16.7248975485670
vertex 163.9125794172172 78.8743346929552 17.1181606128954
endloop
endfacet
facet normal 0.6331621689632 -0.7683559313345 0.0934603155188
outer loop
vertex 163.8109385967343 78.7427425384566 16.7248975485670
vertex 164.1208827495584 78.9993740618198 16.7349493130917
vertex 163.9125794172172 78.8743346929552 17.1181606128954
endloop
endfacet
facet normal 0.6331569027371 -0.7683608128498 0.0934558601334
outer loop
vertex 163.9125794172172 78.8743346929552 17.1181606128954
vertex 164.1208827495584 78.9993740618198 16.7349493130917
vertex 164.1930118202968 79.1065841913197 17.1277234330862
endloop
endfacet
facet normal 0.6331427027176 -0.7683718309724 0.0934614752910
outer loop
vertex 164.1208827495584 78.9993740618198 16.7349493130917
vertex 164.4046604633321 79.2370364069899 16.7664196342336
vertex 164.1930118202968 79.1065841913197 17.1277234330862
endloop
endfacet
facet normal 0.6331111879667 -0.7684013389913 0.0934323600679
outer loop
vertex 164.1930118202968 79.1065841913197 17.1277234330862
vertex 164.4046604633321 79.2370364069899 16.7664196342336
vertex 164.4601598381916 79.3299004435575 17.1540752052550
endloop
endfacet
facet normal 0.6331364096994 -0.7683815720936 0.0934240139365
outer loop
vertex 164.4046604633321 79.2370364069899 16.7664196342336
vertex 164.6743863821083 79.4630572199857 16.7974280193022
vertex 164.4601598381916 79.3299004435575 17.1540752052550
endloop
endfacet
facet normal 0.6331419627023 -0.7683763540122 0.0934292976556
outer loop
vertex 164.4601598381916 79.3299004435575 17.1540752052550
vertex 164.6743863821083 79.4630572199857 16.7974280193022
vertex 164.7227257490283 79.5491337776187 17.1777531503281
endloop
endfacet
facet normal 0.6331552088909 -0.7683659305214 0.0934252549814
outer loop
vertex 164.6743863821083 79.4630572199857 16.7974280193022
vertex 164.9412587285433 79.6873606741677 16.8335586783854
vertex 164.7227257490283 79.5491337776187 17.1777531503281
endloop
endfacet
facet normal 0.6331909429484 -0.7683320702053 0.0934615410856
outer loop
vertex 164.7227257490283 79.5491337776187 17.1777531503281
vertex 164.9412587285433 79.6873606741677 16.8335586783854
vertex 164.9829745292983 79.7684900462503 17.2178903593476
endloop
endfacet
facet normal 0.6331499670582 -0.7683644642154 0.0934728267744
outer loop
vertex 164.9412587285433 79.6873606741677 16.8335586783854
vertex 165.2083396911408 79.9143277108456 16.8901644647264
vertex 164.9829745292983 79.7684900462503 17.2178903593476
endloop
endfacet
facet normal 0.6331842869661 -0.7683315273170 0.0935110842089
outer loop
vertex 164.9829745292983 79.7684900462503 17.2178903593476
vertex 165.2083396911408 79.9143277108456 16.8901644647264
vertex 165.2358844876254 79.9828991293925 17.2670679165350
endloop
endfacet
facet normal 0.6331537661681 -0.7683558681401 0.0935177431395
outer loop
vertex 165.2083396911408 79.9143277108456 16.8901644647264
vertex 165.4701828956249 80.1415853202236 16.9845605267369
vertex 165.2358844876254 79.9828991293925 17.2670679165350
endloop
endfacet
facet normal 0.6331931745718 -0.7683167370003 0.0935724068345
outer loop
vertex 165.2358844876254 79.9828991293925 17.2670679165350
vertex 165.4701828956249 80.1415853202236 16.9845605267369
vertex 165.4437482357523 80.1608972251735 17.3220094293356
endloop
endfacet
facet normal 0.6332251038119 -0.7682815666762 0.0936450864060
outer loop
vertex 165.4118075966267 80.2440531551625 18.2207413018176
vertex 165.3538048266761 80.1613070070761 17.9340895265341
vertex 165.6588912009944 80.4102271795122 17.9132921620635
endloop
endfacet
facet normal 0.6332052930828 -0.7682946590702 0.0936716267407
outer loop
vertex 165.1606485247612 80.0459012388934 18.2932373134861
vertex 165.0809198617829 79.9394100904429 17.9587500170157
vertex 165.3538048266761 80.1613070070761 17.9340895265341
endloop
endfacet
facet normal 0.6331953918422 -0.7683011798887 0.0936850720841
outer loop
vertex 164.8757010697324 79.8154063522745 18.3288343253167
vertex 164.8056358098451 79.7120556235154 17.9548207671303
vertex 165.0809198617829 79.9394100904429 17.9587500170157
endloop
endfacet
facet normal 0.6331818059650 -0.7683072550013 0.0937270638994
outer loop
vertex 164.5929664373611 79.5826129615165 18.3304501697563
vertex 164.5146533846393 79.4675908982629 17.9166328163021
vertex 164.8056358098451 79.7120556235154 17.9548207671303
endloop
endfacet
facet normal 0.6331294978906 -0.7683476914077 0.0937489413766
outer loop
vertex 164.3209680914737 79.3571881950115 18.3198396118911
vertex 164.2453148961209 79.2502015828980 17.9539192469491
vertex 164.5146533846393 79.4675908982629 17.9166328163021
endloop
endfacet
facet normal 0.6330696941086 -0.7684053322530 0.0936803488806
outer loop
vertex 164.0554964541714 79.1358463466203 18.2986781002228
vertex 163.9632135629867 79.0074355900181 17.8690254689187
vertex 164.2453148961209 79.2502015828980 17.9539192469491
endloop
endfacet
facet normal 0.6331294952936 -0.7683540962321 0.0936964513339
outer loop
vertex 163.7850627303372 78.9118781685714 18.2892186566761
vertex 163.6819317936897 78.7877775728680 17.9684171454468
vertex 163.9632135629867 79.0074355900181 17.8690254689187
endloop
endfacet
facet normal 0.6330611499571 -0.7684188847686 0.0936269082365
outer loop
vertex 163.5091379284770 78.6828137934193 18.2753046974682
vertex 163.4315401315631 78.5658359527623 17.8399188444089
vertex 163.6819317936897 78.7877775728680 17.9684171454468
endloop
endfacet
facet normal 0.6331296738242 -0.7683610601747 0.0936381190033
outer loop
vertex 163.2767096161845 78.4825831651732 18.2036552578246
vertex 163.1303802132636 78.3246345818025 17.8969847038317
vertex 163.4315401315631 78.5658359527623 17.8399188444089
endloop
endfacet
facet normal 0.6330920788317 -0.7683940353946 0.0936217180493
outer loop
vertex 163.0490422248840 78.3081501722336 18.3117166161537
vertex 162.8292948007584 78.0820697546005 17.9421603679657
vertex 163.1303802132636 78.3246345818025 17.8969847038317
endloop
endfacet
facet normal 0.6331107508969 -0.7683830526097 0.0935855841519
outer loop
vertex 162.8336831927264 77.9885426163656 17.1446101740038
vertex 162.9619747400355 78.1436599791157 17.5503008067670
vertex 162.6571565866470 77.8902322053909 17.5316445529461
endloop
endfacet
facet normal 0.6330969342925 -0.7683980044163 0.0935562857243
outer loop
vertex 163.0866900086438 78.2104581594449 17.2549784183476
vertex 163.2334589958244 78.3643797040012 17.5259811804196
vertex 162.9619747400355 78.1436599791157 17.5503008067670
endloop
endfacet
facet normal 0.6330784291169 -0.7684178445888 0.0935185473819
outer loop
vertex 163.3227020502339 78.3934108913229 17.1603877097688
vertex 163.4658724069591 78.5455740988405 17.4414748325979
vertex 163.2334589958244 78.3643797040012 17.5259811804196
endloop
endfacet
facet normal 0.6331350707968 -0.7683718494054 0.0935130106913
outer loop
vertex 163.6154204607050 78.6297731101646 17.1207925304770
vertex 163.7252047657816 78.7720605731000 17.5466304644871
vertex 163.4658724069591 78.5455740988405 17.4414748325979
endloop
endfacet
facet normal 0.6331470064958 -0.7683665053233 0.0934761020938
outer loop
vertex 163.9125794172172 78.8743346929552 17.1181606128954
vertex 164.0083342790426 78.9929516613501 17.4446012824561
vertex 163.7252047657816 78.7720605731000 17.5466304644871
endloop
endfacet
facet normal 0.6331183391428 -0.7683948954612 0.0934368945881
outer loop
vertex 164.1930118202968 79.1065841913197 17.1277234330862
vertex 164.2508134245979 79.2051218450016 17.5464078784273
vertex 164.0083342790426 78.9929516613501 17.4446012824561
endloop
endfacet
facet normal 0.6331034236967 -0.7684075675011 0.0934337471715
outer loop
vertex 164.4601598381916 79.3299004435575 17.1540752052550
vertex 164.5136848091795 79.4182159006596 17.5177063792944
vertex 164.2508134245979 79.2051218450016 17.5464078784273
endloop
endfacet
facet normal 0.6332259116797 -0.7682983854701 0.0935015275891
outer loop
vertex 164.7227257490283 79.5491337776187 17.1777531503281
vertex 164.7597625851507 79.6267315745389 17.5645444542027
vertex 164.5136848091795 79.4182159006596 17.5177063792944
endloop
endfacet
facet normal 0.6331839666919 -0.7683315387301 0.0935131590583
outer loop
vertex 164.9829745292983 79.7684900462503 17.2178903593476
vertex 165.0235280394583 79.8479989171030 17.5965679809273
vertex 164.7597625851507 79.6267315745389 17.5645444542027
endloop
endfacet
facet normal 0.6332062290314 -0.7683103840982 0.0935362240131
outer loop
vertex 165.2358844876254 79.9828991293925 17.2670679165350
vertex 165.2796193957311 80.0607241690141 17.6102565601237
vertex 165.0235280394583 79.8479989171030 17.5965679809273
endloop
endfacet
facet normal 0.6332154329486 -0.7683009783601 0.0935511738383
outer loop
vertex 165.4437482357523 80.1608972251735 17.3220094293356
vertex 165.5428037047555 80.2732892334621 17.5745710730624
vertex 165.2796193957311 80.0607241690141 17.6102565601237
endloop
endfacet
facet normal 0.6332074410098 -0.7683041226298 0.0935794411174
outer loop
vertex 165.6854897738000 80.3432576358318 17.1835357322223
vertex 165.8371388912219 80.5038101971149 17.4755640328002
vertex 165.5428037047555 80.2732892334621 17.5745710730624
endloop
endfacet
facet normal 0.6331380026855 -0.7683614700110 0.0935784214330
outer loop
vertex 166.0221219062805 80.6058272719632 17.0616460964297
vertex 166.1108434200358 80.7173140347079 17.3767739906974
vertex 165.8371388912219 80.5038101971149 17.4755640328002
endloop
endfacet
facet normal 0.6331182046362 -0.7683798155937 0.0935617333441
outer loop
vertex 166.3655787706375 80.8888077735901 17.0614179223776
vertex 166.3261055946350 80.9151679277420 17.5450108945370
vertex 166.1108434200358 80.7173140347079 17.3767739906974
endloop
endfacet
facet normal 0.6330767676849 -0.7684113172792 0.0935834050179
outer loop
vertex 163.6819317936897 78.7877775728680 17.9684171454468
vertex 163.4315401315631 78.5658359527623 17.8399188444089
vertex 163.7252047657816 78.7720605731000 17.5466304644871
endloop
endfacet
facet normal 0.6331121337418 -0.7683818703439 0.0935859361005
outer loop
vertex 163.6819317936897 78.7877775728680 17.9684171454468
vertex 163.7252047657816 78.7720605731000 17.5466304644871
vertex 163.9632135629867 79.0074355900181 17.8690254689187
endloop
endfacet
facet normal 0.6331560257130 -0.7683522794694 0.0935319289738
outer loop
vertex 164.0083342790426 78.9929516613501 17.4446012824561
vertex 163.9632135629867 79.0074355900181 17.8690254689187
vertex 163.7252047657816 78.7720605731000 17.5466304644871
endloop
endfacet
facet normal 0.6330908277519 -0.7684066187545 0.0935268521369
outer loop
vertex 164.2508134245979 79.2051218450016 17.5464078784273
vertex 163.9632135629867 79.0074355900181 17.8690254689187
vertex 164.0083342790426 78.9929516613501 17.4446012824561
endloop
endfacet
facet normal 0.6331021004955 -0.7683952605200 0.0935438611485
outer loop
vertex 164.2508134245979 79.2051218450016 17.5464078784273
vertex 164.2453148961209 79.2502015828980 17.9539192469491
vertex 163.9632135629867 79.0074355900181 17.8690254689187
endloop
endfacet
facet normal 0.6331032730644 -0.7684105655734 0.0934101083950
outer loop
vertex 164.5136848091795 79.4182159006596 17.5177063792944
vertex 164.3793880939022 79.3343298137188 17.7378617227291
vertex 164.2508134245979 79.2051218450016 17.5464078784273
endloop
endfacet
facet normal 0.6329769121664 -0.7684972221384 0.0935534511913
outer loop
vertex 164.2453148961209 79.2502015828980 17.9539192469491
vertex 164.2508134245979 79.2051218450016 17.5464078784273
vertex 164.3793880939022 79.3343298137188 17.7378617227291
endloop
endfacet
facet normal 0.6331283983938 -0.7683541830119 0.0937031514699
outer loop
vertex 164.2453148961209 79.2502015828980 17.9539192469491
vertex 164.3793880939022 79.3343298137188 17.7378617227291
vertex 164.5146533846393 79.4675908982629 17.9166328163021
endloop
endfacet
facet normal 0.6332491221462 -0.7682731806258 0.0935514256022
outer loop
vertex 164.5136848091795 79.4182159006596 17.5177063792944
vertex 164.5146533846393 79.4675908982629 17.9166328163021
vertex 164.3793880939022 79.3343298137188 17.7378617227291
endloop
endfacet
facet normal 0.6332167127490 -0.7682994868786 0.0935547602072
outer loop
vertex 164.7597625851507 79.6267315745389 17.5645444542027
vertex 164.5146533846393 79.4675908982629 17.9166328163021
vertex 164.5136848091795 79.4182159006596 17.5177063792944
endloop
endfacet
facet normal 0.6331279388163 -0.7683781873563 0.0935092203220
outer loop
vertex 165.2261614799500 80.2453085780144 19.4872952997684
vertex 165.4472276568555 80.3761184215297 19.0653931350226
vertex 165.5604839324951 80.4898813366890 19.2333683371544
endloop
endfacet
facet normal 0.6332070934899 -0.7683087393488 0.0935438816504
outer loop
vertex 164.7597625851507 79.6267315745389 17.5645444542027
vertex 164.8056358098451 79.7120556235154 17.9548207671303
vertex 164.5146533846393 79.4675908982629 17.9166328163021
endloop
endfacet
facet normal 0.6331116565953 -0.7683932081581 0.0934960316788
outer loop
vertex 165.1954352855682 80.1794789731183 19.1543409602843
vertex 165.4472276568555 80.3761184215297 19.0653931350226
vertex 165.2261614799500 80.2453085780144 19.4872952997684
endloop
endfacet
facet normal 0.6331788227811 -0.7683310397895 0.0935520800277
outer loop
vertex 165.0235280394583 79.8479989171030 17.5965679809273
vertex 164.8056358098451 79.7120556235154 17.9548207671303
vertex 164.7597625851507 79.6267315745389 17.5645444542027
endloop
endfacet
facet normal 0.6331229071235 -0.7683752211594 0.0935676438928
outer loop
vertex 165.3105393050680 80.2437998354044 18.9036941160623
vertex 165.4472276568555 80.3761184215297 19.0653931350226
vertex 165.1954352855682 80.1794789731183 19.1543409602843
endloop
endfacet
facet normal 0.6332028962700 -0.7683083696411 0.0935753241758
outer loop
vertex 165.0235280394583 79.8479989171030 17.5965679809273
vertex 165.0809198617829 79.9394100904429 17.9587500170157
vertex 164.8056358098451 79.7120556235154 17.9548207671303
endloop
endfacet
facet normal 0.6331490098167 -0.7683624776013 0.0934956383078
outer loop
vertex 164.4851863384247 79.6510130167007 19.6211021393538
vertex 164.9311855435087 79.9825489521009 19.3254286422757
vertex 164.8595184087753 79.9604654312134 19.6292698383331
endloop
endfacet
facet normal 0.6331564154148 -0.7683538365854 0.0935164981354
outer loop
vertex 164.7576391696148 79.8089541495024 19.0741335975133
vertex 164.9311855435087 79.9825489521009 19.3254286422757
vertex 164.4851863384247 79.6510130167007 19.6211021393538
endloop
endfacet
facet normal 0.6330846716270 -0.7684081320359 0.0935560857032
outer loop
vertex 166.2207990884781 80.8861777186394 18.0195029824972
vertex 166.0031527280816 80.6726031005368 17.7381327376196
vertex 166.3261055946350 80.9151679277420 17.5450108945370
endloop
endfacet
facet normal 0.6330985402140 -0.7683913076789 0.0936004095199
outer loop
vertex 166.1108434200358 80.7173140347079 17.3767739906974
vertex 166.3261055946350 80.9151679277420 17.5450108945370
vertex 166.0031527280816 80.6726031005368 17.7381327376196
endloop
endfacet
facet normal 0.6331387949103 -0.7683699921822 0.0935030560651
outer loop
vertex 164.4382849335138 79.5503593981142 19.1115560010076
vertex 164.7576391696148 79.8089541495024 19.0741335975133
vertex 164.4851863384247 79.6510130167007 19.6211021393538
endloop
endfacet
facet normal 0.6331190862709 -0.7683851415755 0.0935120142315
outer loop
vertex 166.2207990884781 80.8861777186394 18.0195029824972
vertex 165.8682674169434 80.6040316820145 18.0879188702221
vertex 166.0031527280816 80.6726031005368 17.7381327376196
endloop
endfacet
facet normal 0.6331548553760 -0.7683549014601 0.0935183111269
outer loop
vertex 165.0728508828863 80.0550393759920 18.9618878067961
vertex 164.9311855435087 79.9825489521009 19.3254286422757
vertex 164.7576391696148 79.8089541495024 19.0741335975133
endloop
endfacet
facet normal 0.6331612804286 -0.7683521443911 0.0934974607972
outer loop
vertex 164.1243100166321 79.3411061167717 19.5181611925364
vertex 164.4382849335138 79.5503593981142 19.1115560010076
vertex 164.4851863384247 79.6510130167007 19.6211021393538
endloop
endfacet
facet normal 0.6331445887455 -0.7683510864952 0.0936191092884
outer loop
vertex 165.8371388912219 80.5038101971149 17.4755640328002
vertex 166.1108434200358 80.7173140347079 17.3767739906974
vertex 166.0031527280816 80.6726031005368 17.7381327376196
endloop
endfacet
facet normal 0.6331524096099 -0.7683608317885 0.0934861400343
outer loop
vertex 164.2150282859411 79.3539583682943 19.0093871205619
vertex 164.4382849335138 79.5503593981142 19.1115560010076
vertex 164.1243100166321 79.3411061167717 19.5181611925364
endloop
endfacet
facet normal 0.6332514476611 -0.7682761650347 0.0935111665770
outer loop
vertex 163.7614369392146 78.9703726768414 18.9291266724112
vertex 163.9881581067897 79.1678167879519 19.0159622580168
vertex 163.8045758008957 79.0505856275558 19.2960128188133
endloop
endfacet
facet normal 0.6331747448214 -0.7683354800007 0.0935432129684
outer loop
vertex 165.8682674169434 80.6040316820145 18.0879188702221
vertex 165.6588912009944 80.4102271795122 17.9132921620635
vertex 166.0031527280816 80.6726031005368 17.7381327376196
endloop
endfacet
facet normal 0.6331834396610 -0.7683241708193 0.0935772422859
outer loop
vertex 166.0031527280816 80.6726031005368 17.7381327376196
vertex 165.6588912009944 80.4102271795122 17.9132921620635
vertex 165.8371388912219 80.5038101971149 17.4755640328002
endloop
endfacet
facet normal 0.6331683538453 -0.7683417139186 0.0935352679014
outer loop
vertex 163.5095179080963 78.7746682763100 19.0268363803625
vertex 163.7614369392146 78.9703726768414 18.9291266724112
vertex 163.8045758008957 79.0505856275558 19.2960128188133
endloop
endfacet
facet normal 0.6332093959436 -0.7683008854010 0.0935927902178
outer loop
vertex 165.5428037047555 80.2732892334621 17.5745710730624
vertex 165.8371388912219 80.5038101971149 17.4755640328002
vertex 165.6588912009944 80.4102271795122 17.9132921620635
endloop
endfacet
facet normal 0.6331367240885 -0.7683587044695 0.0936097744704
outer loop
vertex 163.5091379284770 78.6828137934193 18.2753046974682
vertex 163.6190563440376 78.8184739649251 18.6453759670258
vertex 163.2643938064575 78.5311535000801 18.6858065426350
endloop
endfacet
facet normal 0.6331018007687 -0.7683914919894 0.0935768395585
outer loop
vertex 163.2767096161845 78.4825831651732 18.2036552578246
vertex 163.5091379284770 78.6828137934193 18.2753046974682
vertex 163.2643938064575 78.5311535000801 18.6858065426350
endloop
endfacet
facet normal 0.6331435288017 -0.7683535726728 0.0936058721310
outer loop
vertex 163.7850627303372 78.9118781685714 18.2892186566761
vertex 163.6190563440376 78.8184739649251 18.6453759670258
vertex 163.5091379284770 78.6828137934193 18.2753046974682
endloop
endfacet
facet normal 0.6332262841132 -0.7682882916385 0.0935819108559
outer loop
vertex 165.6588912009944 80.4102271795122 17.9132921620635
vertex 165.3538048266761 80.1613070070761 17.9340895265341
vertex 165.5428037047555 80.2732892334621 17.5745710730624
endloop
endfacet
facet normal 0.6331236775509 -0.7683736177315 0.0935755977731
outer loop
vertex 163.0490422248840 78.3081501722336 18.3117166161537
vertex 163.2767096161845 78.4825831651732 18.2036552578246
vertex 163.2643938064575 78.5311535000801 18.6858065426350
endloop
endfacet
facet normal 0.6331666157421 -0.7683325654825 0.0936221422994
outer loop
vertex 163.8900786637905 79.0420398116112 18.6471985652474
vertex 163.6190563440376 78.8184739649251 18.6453759670258
vertex 163.7850627303372 78.9118781685714 18.2892186566761
endloop
endfacet
facet normal 0.6332159318504 -0.7682978493469 0.0935734916511
outer loop
vertex 165.2796193957311 80.0607241690141 17.6102565601237
vertex 165.5428037047555 80.2732892334621 17.5745710730624
vertex 165.3538048266761 80.1613070070761 17.9340895265341
endloop
endfacet
facet normal 0.6330901973303 -0.7683902459091 0.0936655328070
outer loop
vertex 164.0554964541714 79.1358463466203 18.2986781002228
vertex 163.8900786637905 79.0420398116112 18.6471985652474
vertex 163.7850627303372 78.9118781685714 18.2892186566761
endloop
endfacet
facet normal 0.6332057807333 -0.7683056377220 0.0935782362016
outer loop
vertex 165.0809198617829 79.9394100904429 17.9587500170157
vertex 165.2796193957311 80.0607241690141 17.6102565601237
vertex 165.3538048266761 80.1613070070761 17.9340895265341
endloop
endfacet
facet normal 0.6331802277356 -0.7683081536177 0.0937303594854
outer loop
vertex 164.1413643955794 79.2521983384820 18.6723489314602
vertex 163.8900786637905 79.0420398116112 18.6471985652474
vertex 164.0554964541714 79.1358463466203 18.2986781002228
endloop
endfacet
facet normal 0.6332026320668 -0.7683085759440 0.0935754181106
outer loop
vertex 165.0809198617829 79.9394100904429 17.9587500170157
vertex 165.0235280394583 79.8479989171030 17.5965679809273
vertex 165.2796193957311 80.0607241690141 17.6102565601237
endloop
endfacet
facet normal 0.6331423231763 -0.7683372230694 0.0937481213082
outer loop
vertex 164.3209680914737 79.3571881950115 18.3198396118911
vertex 164.1413643955794 79.2521983384820 18.6723489314602
vertex 164.0554964541714 79.1358463466203 18.2986781002228
endloop
endfacet
facet normal 0.6331256823741 -0.7683525259583 0.0937350850637
outer loop
vertex 164.3929928540899 79.4630050658576 18.7007421629488
vertex 164.1413643955794 79.2521983384820 18.6723489314602
vertex 164.3209680914737 79.3571881950115 18.3198396118911
endloop
endfacet
facet normal 0.6331098382885 -0.7683826517093 0.0935950490919
outer loop
vertex 162.6571565866470 77.8902322053909 17.5316445529461
vertex 162.9619747400355 78.1436599791157 17.5503008067670
vertex 162.8292948007584 78.0820697546005 17.9421603679657
endloop
endfacet
facet normal 0.6331301333849 -0.7683490778203 0.0937332855111
outer loop
vertex 164.5929664373611 79.5826129615165 18.3304501697563
vertex 164.3929928540899 79.4630050658576 18.7007421629488
vertex 164.3209680914737 79.3571881950115 18.3198396118911
endloop
endfacet
facet normal 0.6331009857906 -0.7683760786744 0.0937088230210
outer loop
vertex 164.6674126386856 79.6904601156854 18.7117932366903
vertex 164.3929928540899 79.4630050658576 18.7007421629488
vertex 164.5929664373611 79.5826129615165 18.3304501697563
endloop
endfacet
facet normal 0.6331543159453 -0.7683348267063 0.0936867454339
outer loop
vertex 164.8757010697324 79.8154063522745 18.3288343253167
vertex 164.6674126386856 79.6904601156854 18.7117932366903
vertex 164.5929664373611 79.5826129615165 18.3304501697563
endloop
endfacet
facet normal 0.6331014288983 -0.7683858054607 0.0936260364079
outer loop
vertex 163.4658724069591 78.5455740988405 17.4414748325979
vertex 163.7252047657816 78.7720605731000 17.5466304644871
vertex 163.4315401315631 78.5658359527623 17.8399188444089
endloop
endfacet
facet normal 0.6331525734625 -0.7683364424521 0.0936852705488
outer loop
vertex 164.9677157401683 79.9328722059300 18.6703391375147
vertex 164.6674126386856 79.6904601156854 18.7117932366903
vertex 164.8757010697324 79.8154063522745 18.3288343253167
endloop
endfacet
facet normal 0.6331887466914 -0.7683089726036 0.0936660753963
outer loop
vertex 165.1606485247612 80.0459012388934 18.2932373134861
vertex 164.9677157401683 79.9328722059300 18.6703391375147
vertex 164.8757010697324 79.8154063522745 18.3288343253167
endloop
endfacet
facet normal 0.6331750412769 -0.7683215830227 0.0936552837029
outer loop
vertex 165.2946919201668 80.1928862928634 18.5928344725426
vertex 164.9677157401683 79.9328722059300 18.6703391375147
vertex 165.1606485247612 80.0459012388934 18.2932373134861
endloop
endfacet
facet normal 0.6331890996711 -0.7683113744185 0.0936439853744
outer loop
vertex 165.4118075966267 80.2440531551625 18.2207413018176
vertex 165.2946919201668 80.1928862928634 18.5928344725426
vertex 165.1606485247612 80.0459012388934 18.2932373134861
endloop
endfacet
facet normal 0.6331678162546 -0.7683300435429 0.0936347192483
outer loop
vertex 165.6059101224017 80.4173350333564 18.3300832288893
vertex 165.2946919201668 80.1928862928634 18.5928344725426
vertex 165.4118075966267 80.2440531551625 18.2207413018176
endloop
endfacet
facet normal 0.6330959737822 -0.7683903293422 0.0936257964135
outer loop
vertex 163.2334589958244 78.3643797040012 17.5259811804196
vertex 163.4658724069591 78.5455740988405 17.4414748325979
vertex 163.4315401315631 78.5658359527623 17.8399188444089
endloop
endfacet
facet normal 0.6331291661286 -0.7683718156687 0.0935532569365
outer loop
vertex 165.5576676130579 80.4232992231952 18.7055533753977
vertex 165.2946919201668 80.1928862928634 18.5928344725426
vertex 165.6059101224017 80.4173350333564 18.3300832288893
endloop
endfacet
facet normal 0.6331271357461 -0.7683687366213 0.0935922783399
outer loop
vertex 163.2334589958244 78.3643797040012 17.5259811804196
vertex 163.4315401315631 78.5658359527623 17.8399188444089
vertex 163.1303802132636 78.3246345818025 17.8969847038317
endloop
endfacet
facet normal 0.6331288629183 -0.7683720697621 0.0935532220145
outer loop
vertex 165.8587679267072 80.6366764008697 18.4203442187183
vertex 165.5576676130579 80.4232992231952 18.7055533753977
vertex 165.6059101224017 80.4173350333564 18.3300832288893
endloop
endfacet
facet normal 0.6330967947244 -0.7683951070666 0.0935810234275
outer loop
vertex 163.1303802132636 78.3246345818025 17.8969847038317
vertex 162.9619747400355 78.1436599791157 17.5503008067670
vertex 163.2334589958244 78.3643797040012 17.5259811804196
endloop
endfacet
facet normal 0.6331229311310 -0.7683782860645 0.0935423090406
outer loop
vertex 165.8421158790588 80.6795954704285 18.8855975866318
vertex 165.5576676130579 80.4232992231952 18.7055533753977
vertex 165.8587679267072 80.6366764008697 18.4203442187183
endloop
endfacet
facet normal 0.6331306379132 -0.7683719731359 0.0935420025166
outer loop
vertex 166.0649031400681 80.8131247758865 18.4745173901320
vertex 165.8421158790588 80.6795954704285 18.8855975866318
vertex 165.8587679267072 80.6366764008697 18.4203442187183
endloop
endfacet
facet normal 0.6330909659127 -0.7683992982133 0.0935860426826
outer loop
vertex 162.9619747400355 78.1436599791157 17.5503008067670
vertex 163.1303802132636 78.3246345818025 17.8969847038317
vertex 162.8292948007584 78.0820697546005 17.9421603679657
endloop
endfacet
endsolid WRAP
