solid WRAP
facet normal -0.4702840050943 0.3457865861694 0.8119511015928
outer loop
vertex 134.4948709011078 107.9393550753593 52.2091761231422
vertex 134.7382068634033 108.0037057399750 52.3227117955685
vertex 134.7206234931937 108.2004681230018 52.2287320345596
endloop
endfacet
facet normal -0.4704995065115 0.3459887049250 0.8117401249395
outer loop
vertex 134.4948709011078 107.9393550753593 52.2091761231422
vertex 134.7206234931937 108.2004681230018 52.2287320345596
vertex 134.4558969140213 108.2729771733675 52.0443860441435
endloop
endfacet
facet normal -0.4709598920893 0.3448552626942 0.8119554346363
outer loop
vertex 134.4558969140213 108.2729771733675 52.0443860441435
vertex 134.7206234931937 108.2004681230018 52.2287320345596
vertex 134.7107589244825 108.4593310952720 52.1130654960853
endloop
endfacet
facet normal -0.4708638735157 0.3446752573286 0.8120875442976
outer loop
vertex 134.4558969140213 108.2729771733675 52.0443860441435
vertex 134.7107589244825 108.4593310952720 52.1130654960853
vertex 134.5436647534406 108.6000092328092 51.9564729183912
endloop
endfacet
facet normal -0.4708287559420 0.3447189770919 0.8120893481698
outer loop
vertex 134.5436647534406 108.6000092328092 51.9564729183912
vertex 134.7107589244825 108.4593310952720 52.1130654960853
vertex 134.8879337310781 108.7894514203356 52.0756561308868
endloop
endfacet
facet normal -0.4707173440508 0.3443873832027 0.8122945969909
outer loop
vertex 134.5436647534406 108.6000092328092 51.9564729183912
vertex 134.8879337310781 108.7894514203356 52.0756561308868
vertex 134.5290169119977 108.9213080704283 51.8117640167572
endloop
endfacet
facet normal -0.4707008791117 0.3444219578243 0.8122894788017
outer loop
vertex 134.5290169119977 108.9213080704283 51.8117640167572
vertex 134.8879337310781 108.7894514203356 52.0756561308868
vertex 134.8090544343008 109.1247536241982 51.8877748399964
endloop
endfacet
facet normal -0.4706246581614 0.3442776942852 0.8123947934029
outer loop
vertex 134.5290169119977 108.9213080704283 51.8117640167572
vertex 134.8090544343008 109.1247536241982 51.8877748399964
vertex 134.6047744154939 109.2896275221946 51.6995638609110
endloop
endfacet
facet normal -0.4704784495128 0.3444649221353 0.8124001144525
outer loop
vertex 134.6047744154939 109.2896275221946 51.6995638609110
vertex 134.8090544343008 109.1247536241982 51.8877748399964
vertex 134.9033638834918 109.4236187636710 51.8156699836263
endloop
endfacet
facet normal -0.4704780436246 0.3444631703268 0.8124010922910
outer loop
vertex 134.6047744154939 109.2896275221946 51.6995638609110
vertex 134.9033638834918 109.4236187636710 51.8156699836263
vertex 134.7090303897875 109.5737405121042 51.6394749283915
endloop
endfacet
facet normal -0.4704001792084 0.3445658036508 0.8124026577721
outer loop
vertex 134.7090303897875 109.5737405121042 51.6394749283915
vertex 134.9033638834918 109.4236187636710 51.8156699836263
vertex 134.9444016814090 109.7392216324735 51.7055746167867
endloop
endfacet
facet normal -0.4704434099477 0.3446518765529 0.8123411118645
outer loop
vertex 134.7090303897875 109.5737405121042 51.6394749283915
vertex 134.9444016814090 109.7392216324735 51.7055746167867
vertex 134.6992254256847 109.8713129758764 51.5075456351042
endloop
endfacet
facet normal -0.4704303020840 0.3446737030405 0.8123394421752
outer loop
vertex 134.6992254256847 109.8713129758764 51.5075456351042
vertex 134.9444016814090 109.7392216324735 51.7055746167867
vertex 134.9668502807120 110.0321821868135 51.5942722558973
endloop
endfacet
facet normal -0.4704706919791 0.3447771820562 0.8122721358770
outer loop
vertex 134.6992254256847 109.8713129758764 51.5075456351042
vertex 134.9668502807120 110.0321821868135 51.5942722558973
vertex 134.8160803317775 110.1578883826591 51.4535885304213
endloop
endfacet
facet normal -0.4704312022311 0.3448266442510 0.8122740112684
outer loop
vertex 134.8160803317775 110.1578883826591 51.4535885304213
vertex 134.9668502807120 110.0321821868135 51.5942722558973
vertex 135.0379735231151 110.3590242564394 51.4967124909171
endloop
endfacet
facet normal -0.4704696580389 0.3448785709117 0.8122296917687
outer loop
vertex 134.8160803317775 110.1578883826591 51.4535885304213
vertex 135.0379735231151 110.3590242564394 51.4967124909171
vertex 134.7521394491036 110.4167290031910 51.3066463172533
endloop
endfacet
facet normal -0.4704950373412 0.3448059663915 0.8122458158576
outer loop
vertex 135.0379735231151 110.3590242564394 51.4967124909171
vertex 135.0203156471252 110.7256114482880 51.3308644294739
vertex 134.7521394491036 110.4167290031910 51.3066463172533
endloop
endfacet
facet normal -0.4704756160418 0.3447876116231 0.8122648567932
outer loop
vertex 135.0203156471252 110.7256114482880 51.3308644294739
vertex 134.7772777080536 110.6896996498108 51.2053370475769
vertex 134.7521394491036 110.4167290031910 51.3066463172533
endloop
endfacet
facet normal -0.4705039038151 0.3447863683881 0.8122489991798
outer loop
vertex 134.6992254256847 109.8713129758764 51.5075456351042
vertex 134.8160803317775 110.1578883826591 51.4535885304213
vertex 134.6303373575228 110.1251542567994 51.3598900288628
endloop
endfacet
facet normal -0.4703334899356 0.3448694962955 0.8123124022012
outer loop
vertex 134.6992254256847 109.8713129758764 51.5075456351042
vertex 134.6303373575228 110.1251542567994 51.3598900288628
vertex 134.4370096921979 109.9352575837145 51.3285733759723
endloop
endfacet
facet normal -0.4704934629785 0.3450610563335 0.8121383925764
outer loop
vertex 134.4370096921979 109.9352575837145 51.3285733759723
vertex 134.6303373575228 110.1251542567994 51.3598900288628
vertex 134.4508305191996 110.2593690156368 51.1988718062959
endloop
endfacet
facet normal -0.4700234479619 0.3451369967341 0.8123782443243
outer loop
vertex 134.4370096921979 109.9352575837145 51.3285733759723
vertex 134.4508305191996 110.2593690156368 51.1988718062959
vertex 134.2468932271030 110.0368313491131 51.1754229664874
endloop
endfacet
facet normal -0.4703855846780 0.3455075573275 0.8120110402923
outer loop
vertex 134.2468932271030 110.0368313491131 51.1754229664874
vertex 134.4508305191996 110.2593690156368 51.1988718062959
vertex 134.2453509569164 110.2322526275543 51.0913785547231
endloop
endfacet
facet normal -0.4695744364391 0.3456836030559 0.8124054992559
outer loop
vertex 134.2468932271030 110.0368313491131 51.1754229664874
vertex 134.2453509569164 110.2322526275543 51.0913785547231
vertex 134.1129541397135 110.1102977991246 51.0667450726245
endloop
endfacet
facet normal -0.4698424793228 0.3460362340443 0.8121003443862
outer loop
vertex 134.2453509569164 110.2322526275543 51.0913785547231
vertex 134.1060847043991 110.2899014949799 50.9862415492535
vertex 134.1129541397135 110.1102977991246 51.0667450726245
endloop
endfacet
facet normal -0.4688826895451 0.3462757653334 0.8125528399973
outer loop
vertex 134.1060847043991 110.2899014949799 50.9862415492535
vertex 133.9291483163834 110.0787967443466 50.9741045534611
vertex 134.1129541397135 110.1102977991246 51.0667450726245
endloop
endfacet
facet normal -0.4711506964702 0.3442757695305 0.8120906450205
outer loop
vertex 134.5436647534406 108.6000092328092 51.9564729183912
vertex 134.5290169119977 108.9213080704283 51.8117640167572
vertex 134.3509554863651 108.6770594120168 51.8120042979762
endloop
endfacet
facet normal -0.4712029262824 0.3441713259678 0.8121046118847
outer loop
vertex 134.5436647534406 108.6000092328092 51.9564729183912
vertex 134.3509554863651 108.6770594120168 51.8120042979762
vertex 134.3236863613164 108.4771379828418 51.8809091299763
endloop
endfacet
facet normal -0.4715043779265 0.3441545801578 0.8119367257075
outer loop
vertex 134.3236863613164 108.4771379828418 51.8809091299763
vertex 134.3509554863651 108.6770594120168 51.8120042979762
vertex 134.1316029429542 108.5604876279973 51.7340339720436
endloop
endfacet
facet normal -0.4716361481550 0.3439035093858 0.8119665756579
outer loop
vertex 134.3236863613164 108.4771379828418 51.8809091299763
vertex 134.1316029429542 108.5604876279973 51.7340339720436
vertex 134.1319903731240 108.2728952169525 51.8560670316233
endloop
endfacet
facet normal -0.4720225053520 0.3438223061117 0.8117764324377
outer loop
vertex 134.1316029429542 108.5604876279973 51.7340339720436
vertex 133.7924897670746 108.4024310112000 51.6037940979004
vertex 134.1319903731240 108.2728952169525 51.8560670316233
endloop
endfacet
facet normal -0.4730107181153 0.3417863542490 0.8120609266534
outer loop
vertex 133.7924897670746 108.4024310112000 51.6037940979004
vertex 133.9022070169449 108.2006916403770 51.7526119947433
vertex 134.1319903731240 108.2728952169525 51.8560670316233
endloop
endfacet
facet normal -0.4698686871486 0.3441321782357 0.8128938803682
outer loop
vertex 133.5883289575577 109.3402132391930 51.0898418724537
vertex 133.6074173450470 109.0927720069885 51.2056276202202
vertex 133.7657347321599 109.1191023587914 51.2859914451838
endloop
endfacet
facet normal -0.4701899789847 0.3438249252145 0.8128381170095
outer loop
vertex 133.5883289575577 109.3402132391930 51.0898418724537
vertex 133.7657347321599 109.1191023587914 51.2859914451838
vertex 133.8908821344624 109.3965098261513 51.2410420924212
endloop
endfacet
facet normal -0.4703285975195 0.3438712871549 0.8127383024232
outer loop
vertex 133.8908821344624 109.3965098261513 51.2410420924212
vertex 133.7657347321599 109.1191023587914 51.2859914451838
vertex 134.0012773871813 109.1415658592574 51.4127947390186
endloop
endfacet
facet normal -0.4703048163680 0.3438865152104 0.8127456209402
outer loop
vertex 133.8908821344624 109.3965098261513 51.2410420924212
vertex 134.0012773871813 109.1415658592574 51.4127947390186
vertex 134.1382637619830 109.3570142983680 51.4009036124001
endloop
endfacet
facet normal -0.4704901394603 0.3439958723158 0.8125920677070
outer loop
vertex 134.1382637619830 109.3570142983680 51.4009036124001
vertex 134.0012773871813 109.1415658592574 51.4127947390186
vertex 134.2809125781024 109.1465465723864 51.5725947916863
endloop
endfacet
facet normal -0.4702057598524 0.3442389276920 0.8126537418009
outer loop
vertex 134.1382637619830 109.3570142983680 51.4009036124001
vertex 134.2809125781024 109.1465465723864 51.5725947916863
vertex 134.3980059027956 109.5598936080435 51.4652524143351
endloop
endfacet
facet normal -0.4706045958892 0.3442866917367 0.8124026022983
outer loop
vertex 134.2809125781024 109.1465465723864 51.5725947916863
vertex 134.6047744154939 109.2896275221946 51.6995638609110
vertex 134.3980059027956 109.5598936080435 51.4652524143351
endloop
endfacet
facet normal -0.4704266001862 0.3444516284342 0.8124357756194
outer loop
vertex 134.6047744154939 109.2896275221946 51.6995638609110
vertex 134.7090303897875 109.5737405121042 51.6394749283915
vertex 134.3980059027956 109.5598936080435 51.4652524143351
endloop
endfacet
facet normal -0.4713620365516 0.3437037604533 0.8122102902255
outer loop
vertex 134.1316029429542 108.5604876279973 51.7340339720436
vertex 134.3509554863651 108.6770594120168 51.8120042979762
vertex 134.2216208577227 108.8254041969794 51.6741704195631
endloop
endfacet
facet normal -0.4711723620105 0.3436676312059 0.8123356230886
outer loop
vertex 134.1316029429542 108.5604876279973 51.7340339720436
vertex 134.2216208577227 108.8254041969794 51.6741704195631
vertex 133.9635625481854 108.7074689567122 51.5743847936729
endloop
endfacet
facet normal -0.4711063490590 0.3433922808016 0.8124903380116
outer loop
vertex 133.9635625481854 108.7074689567122 51.5743847936729
vertex 134.2216208577227 108.8254041969794 51.6741704195631
vertex 134.0664774180453 108.9425012469141 51.5347234905370
endloop
endfacet
facet normal -0.4706215444165 0.3432383702491 0.8128362584923
outer loop
vertex 133.9635625481854 108.7074689567122 51.5743847936729
vertex 134.0664774180453 108.9425012469141 51.5347234905370
vertex 133.8585764170190 108.8963039219317 51.4338593930077
endloop
endfacet
facet normal -0.4706267040332 0.3436224987767 0.8126709566518
outer loop
vertex 134.0664774180453 108.9425012469141 51.5347234905370
vertex 134.0012773871813 109.1415658592574 51.4127947390186
vertex 133.8585764170190 108.8963039219317 51.4338593930077
endloop
endfacet
facet normal -0.4703671275050 0.3434892134417 0.8128775588069
outer loop
vertex 134.0012773871813 109.1415658592574 51.4127947390186
vertex 133.7657347321599 109.1191023587914 51.2859914451838
vertex 133.8585764170190 108.8963039219317 51.4338593930077
endloop
endfacet
facet normal -0.4701943728091 0.3442367665378 0.8126612457490
outer loop
vertex 133.8908821344624 109.3965098261513 51.2410420924212
vertex 134.1382637619830 109.3570142983680 51.4009036124001
vertex 134.1156661510503 109.5516793429994 51.3053704053874
endloop
endfacet
facet normal -0.4701343432469 0.3441138237151 0.8127480394489
outer loop
vertex 133.8908821344624 109.3965098261513 51.2410420924212
vertex 134.1156661510503 109.5516793429994 51.3053704053874
vertex 133.9498385787294 109.6796318888238 51.1552728712417
endloop
endfacet
facet normal -0.4698587680273 0.3444772918094 0.8127534272678
outer loop
vertex 133.9498385787294 109.6796318888238 51.1552728712417
vertex 134.1156661510503 109.5516793429994 51.3053704053874
vertex 134.1977193951731 109.7778379917429 51.2569509446728
endloop
endfacet
facet normal -0.4698852976400 0.3446249469069 0.8126754906057
outer loop
vertex 133.9498385787294 109.6796318888238 51.1552728712417
vertex 134.1977193951731 109.7778379917429 51.2569509446728
vertex 134.0367943048637 109.9199019371859 51.1036608368087
endloop
endfacet
facet normal -0.4695865754942 0.3449848638397 0.8126954483920
outer loop
vertex 134.1977193951731 109.7778379917429 51.2569509446728
vertex 134.2468932271030 110.0368313491131 51.1754229664874
vertex 134.0367943048637 109.9199019371859 51.1036608368087
endloop
endfacet
facet normal -0.4697356182669 0.3454186295659 0.8124250237901
outer loop
vertex 134.2468932271030 110.0368313491131 51.1754229664874
vertex 134.1129541397135 110.1102977991246 51.0667450726245
vertex 134.0367943048637 109.9199019371859 51.1036608368087
endloop
endfacet
facet normal -0.4703864922182 0.3444502514684 0.8124595818882
outer loop
vertex 134.9033638834918 109.4236187636710 51.8156699836263
vertex 134.8090544343008 109.1247536241982 51.8877748399964
vertex 135.1227685808460 109.2039532959497 52.0358271896555
endloop
endfacet
facet normal -0.4703114828651 0.3445333708985 0.8124677626974
outer loop
vertex 134.9033638834918 109.4236187636710 51.8156699836263
vertex 135.1227685808460 109.2039532959497 52.0358271896555
vertex 135.2381631730850 109.6218712627834 51.9254039972523
endloop
endfacet
facet normal -0.4701466942599 0.3445151136466 0.8125708721986
outer loop
vertex 135.2381631730850 109.6218712627834 51.9254039972523
vertex 135.1227685808460 109.2039532959497 52.0358271896555
vertex 135.3803649543508 109.3755960464531 52.1120969205562
endloop
endfacet
facet normal -0.4701168071802 0.3445380931106 0.8125784208323
outer loop
vertex 135.2381631730850 109.6218712627834 51.9254039972523
vertex 135.3803649543508 109.3755960464531 52.1120969205562
vertex 135.5365142226646 109.5826365053600 52.1146506070700
endloop
endfacet
facet normal -0.4699409539762 0.3444035069962 0.8127371802401
outer loop
vertex 135.5365142226646 109.5826365053600 52.1146506070700
vertex 135.3803649543508 109.3755960464531 52.1120969205562
vertex 135.6264501810180 109.3066744506412 52.2835943847717
endloop
endfacet
facet normal -0.4698713198177 0.3444410961493 0.8127615112050
outer loop
vertex 135.5365142226646 109.5826365053600 52.1146506070700
vertex 135.6264501810180 109.3066744506412 52.2835943847717
vertex 135.7809007167532 109.5837540924548 52.2554609924306
endloop
endfacet
facet normal -0.4696037160935 0.3443131338435 0.8129703658154
outer loop
vertex 135.6264501810180 109.3066744506412 52.2835943847717
vertex 135.9137445688248 109.3419641256332 52.4346008896828
vertex 135.7809007167532 109.5837540924548 52.2554609924306
endloop
endfacet
facet normal -0.4700020336172 0.3440167176739 0.8128656631674
outer loop
vertex 135.9137445688248 109.3419641256332 52.4346008896828
vertex 135.9529942274094 109.6007004380226 52.3477941751480
vertex 135.7809007167532 109.5837540924548 52.2554609924306
endloop
endfacet
facet normal -0.4706165025148 0.3446235890626 0.8122528482082
outer loop
vertex 134.8879337310781 108.7894514203356 52.0756561308868
vertex 134.7107589244825 108.4593310952720 52.1130654960853
vertex 134.9443495273603 108.4298864007103 52.2608999162788
endloop
endfacet
facet normal -0.4707113779099 0.3445881299946 0.8122129150494
outer loop
vertex 134.8879337310781 108.7894514203356 52.0756561308868
vertex 134.9443495273603 108.4298864007103 52.2608999162788
vertex 135.1829990744502 108.6431927978993 52.3087102919888
endloop
endfacet
facet normal -0.4707956339922 0.3447044021905 0.8121147370442
outer loop
vertex 135.1829990744502 108.6431927978993 52.3087102919888
vertex 134.9443495273603 108.4298864007103 52.2608999162788
vertex 135.1850479841188 108.3882637321985 52.4181034415863
endloop
endfacet
facet normal -0.4711265804424 0.3446324780096 0.8119533239673
outer loop
vertex 135.1829990744502 108.6431927978993 52.3087102919888
vertex 135.1850479841188 108.3882637321985 52.4181034415863
vertex 135.3690251707889 108.5550896823406 52.4540450423903
endloop
endfacet
facet normal -0.4716642160833 0.3453592123437 0.8113321648473
outer loop
vertex 135.1850479841188 108.3882637321985 52.4181034415863
vertex 135.4250311851502 108.3843410015106 52.5592863559723
vertex 135.3690251707889 108.5550896823406 52.4540450423903
endloop
endfacet
facet normal -0.4710264385630 0.3457057832246 0.8115550539672
outer loop
vertex 135.4250311851502 108.3843410015106 52.5592863559723
vertex 135.6019824743271 108.5952147841454 52.5721609592438
vertex 135.3690251707889 108.5550896823406 52.4540450423903
endloop
endfacet
facet normal -0.4704315745084 0.3446735459171 0.8123387719729
outer loop
vertex 134.9668502807120 110.0321821868135 51.5942722558973
vertex 134.9444016814090 109.7392216324735 51.7055746167867
vertex 135.1609081029892 109.9299304187369 51.7500378191382
endloop
endfacet
facet normal -0.4704071923639 0.3447147161910 0.8123354219863
outer loop
vertex 134.9668502807120 110.0321821868135 51.5942722558973
vertex 135.1609081029892 109.9299304187369 51.7500378191382
vertex 135.1535469292600 110.1538799703192 51.6507420688876
endloop
endfacet
facet normal -0.4704558447152 0.3447028559400 0.8123122794099
outer loop
vertex 135.1535469292600 110.1538799703192 51.6507420688876
vertex 135.1609081029892 109.9299304187369 51.7500378191382
vertex 135.2967917918804 110.1086400448814 51.7529007047344
endloop
endfacet
facet normal -0.4704130777009 0.3448005610848 0.8122955800715
outer loop
vertex 135.1535469292600 110.1538799703192 51.6507420688876
vertex 135.2967917918804 110.1086400448814 51.7529007047344
vertex 135.3154331445197 110.3519722818795 51.6604073345590
endloop
endfacet
facet normal -0.4706122387735 0.3447759383594 0.8121906629881
outer loop
vertex 135.3154331445197 110.3519722818795 51.6604073345590
vertex 135.2967917918804 110.1086400448814 51.7529007047344
vertex 135.4846879839542 110.1786531507649 51.8320538103536
endloop
endfacet
facet normal -0.4706601253814 0.3447236672002 0.8121851018383
outer loop
vertex 135.3154331445197 110.3519722818795 51.6604073345590
vertex 135.4846879839542 110.1786531507649 51.8320538103536
vertex 135.5329155922007 110.3775538503937 51.7755802720718
endloop
endfacet
facet normal -0.4708572307620 0.3447373681082 0.8120650314285
outer loop
vertex 135.4846879839542 110.1786531507649 51.8320538103536
vertex 135.7722282409668 110.2859973907471 51.9532077014446
vertex 135.5329155922007 110.3775538503937 51.7755802720718
endloop
endfacet
facet normal -0.4709867559702 0.3444717583327 0.8121026310830
outer loop
vertex 135.7722282409668 110.2859973907471 51.9532077014446
vertex 135.6342434883118 110.4661375284195 51.7967715859413
vertex 135.5329155922007 110.3775538503937 51.7755802720718
endloop
endfacet
facet normal -0.4705763388289 0.3445455601827 0.8123092183970
outer loop
vertex 135.4846879839542 110.1786531507649 51.8320538103536
vertex 135.2967917918804 110.1086400448814 51.7529007047344
vertex 135.3801488876627 109.9396720528354 51.8728587776138
endloop
endfacet
facet normal -0.4703984237503 0.3444893942510 0.8124360775974
outer loop
vertex 135.4846879839542 110.1786531507649 51.8320538103536
vertex 135.3801488876627 109.9396720528354 51.8728587776138
vertex 135.6194093823220 110.0157573819143 51.9791282713111
endloop
endfacet
facet normal -0.4703809746015 0.3443202976340 0.8125178591084
outer loop
vertex 135.6194093823220 110.0157573819143 51.9791282713111
vertex 135.3801488876627 109.9396720528354 51.8728587776138
vertex 135.4946866630513 109.7943410277313 52.0007535814884
endloop
endfacet
facet normal -0.4700880888801 0.3441777664939 0.8127477183877
outer loop
vertex 135.6194093823220 110.0157573819143 51.9791282713111
vertex 135.4946866630513 109.7943410277313 52.0007535814884
vertex 135.7097700237837 109.8183095455196 52.1150063723326
endloop
endfacet
facet normal -0.4700732080615 0.3443490419444 0.8126837739089
outer loop
vertex 135.4946866630513 109.7943410277313 52.0007535814884
vertex 135.5365142226646 109.5826365053600 52.1146506070700
vertex 135.7097700237837 109.8183095455196 52.1150063723326
endloop
endfacet
facet normal -0.4699095199619 0.3442284861257 0.8128294977354
outer loop
vertex 135.5365142226646 109.5826365053600 52.1146506070700
vertex 135.7809007167532 109.5837540924548 52.2554609924306
vertex 135.7097700237837 109.8183095455196 52.1150063723326
endloop
endfacet
facet normal -0.4698124568850 0.3447167312852 0.8126786760631
outer loop
vertex 135.6264501810180 109.3066744506412 52.2835943847717
vertex 135.3803649543508 109.3755960464531 52.1120969205562
vertex 135.3872716426778 109.1659963130702 52.2049963473599
endloop
endfacet
facet normal -0.4698696848272 0.3448684911224 0.8125811978573
outer loop
vertex 135.6264501810180 109.3066744506412 52.2835943847717
vertex 135.3872716426778 109.1659963130702 52.2049963473599
vertex 135.5513706803375 109.0137287974500 52.3645095526941
endloop
endfacet
facet normal -0.4699765802380 0.3447439093194 0.8125722435667
outer loop
vertex 135.5513706803375 109.0137287974500 52.3645095526941
vertex 135.3872716426778 109.1659963130702 52.2049963473599
vertex 135.2629959582856 108.9301109314285 52.2331949323380
endloop
endfacet
facet normal -0.4700321521688 0.3454713023169 0.8122310971657
outer loop
vertex 135.5513706803375 109.0137287974500 52.3645095526941
vertex 135.2629959582856 108.9301109314285 52.2331949323380
vertex 135.4513019323065 108.7620295584379 52.4136573076017
endloop
endfacet
facet normal -0.4704747696196 0.3449418756741 0.8121998482873
outer loop
vertex 135.2629959582856 108.9301109314285 52.2331949323380
vertex 135.1829990744502 108.6431927978993 52.3087102919888
vertex 135.4513019323065 108.7620295584379 52.4136573076017
endloop
endfacet
facet normal -0.4706136244015 0.3455576331133 0.8118575852481
outer loop
vertex 135.1829990744502 108.6431927978993 52.3087102919888
vertex 135.3690251707889 108.5550896823406 52.4540450423903
vertex 135.4513019323065 108.7620295584379 52.4136573076017
endloop
endfacet
facet normal -0.4691511221110 0.3461307386121 0.8124596829442
outer loop
vertex 134.7382068634033 108.0037057399750 52.3227117955685
vertex 134.9787861108780 108.0947369337082 52.4228513240814
vertex 134.7206234931937 108.2004681230018 52.2287320345596
endloop
endfacet
facet normal -0.4705176968796 0.3449656923737 0.8121648650417
outer loop
vertex 134.7107589244825 108.4593310952720 52.1130654960853
vertex 134.7206234931937 108.2004681230018 52.2287320345596
vertex 134.9443495273603 108.4298864007103 52.2608999162788
endloop
endfacet
facet normal -0.4700246515461 0.3444119196213 0.8126852136970
outer loop
vertex 134.7206234931937 108.2004681230018 52.2287320345596
vertex 134.9787861108780 108.0947369337082 52.4228513240814
vertex 134.9443495273603 108.4298864007103 52.2608999162788
endloop
endfacet
facet normal -0.4709912376490 0.3441049649784 0.8122555183777
outer loop
vertex 134.9443495273603 108.4298864007103 52.2608999162788
vertex 134.9787861108780 108.0947369337082 52.4228513240814
vertex 135.1850479841188 108.3882637321985 52.4181034415863
endloop
endfacet
facet normal -0.4721241403417 0.3430372001590 0.8120494291690
outer loop
vertex 135.2108567953110 108.2197874784470 52.5042787194252
vertex 135.4250311851502 108.3843410015106 52.5592863559723
vertex 135.1850479841188 108.3882637321985 52.4181034415863
endloop
endfacet
facet normal -0.4703784282838 0.3436829737075 0.8127891164311
outer loop
vertex 134.9787861108780 108.0947369337082 52.4228513240814
vertex 135.2108567953110 108.2197874784470 52.5042787194252
vertex 135.1850479841188 108.3882637321985 52.4181034415863
endloop
endfacet
facet normal -0.4701965869082 0.3446231838601 0.8124961727947
outer loop
vertex 135.3803649543508 109.3755960464531 52.1120969205562
vertex 135.1227685808460 109.2039532959497 52.0358271896555
vertex 135.3872716426778 109.1659963130702 52.2049963473599
endloop
endfacet
facet normal -0.4701386549282 0.3448145078440 0.8124485216447
outer loop
vertex 135.3872716426778 109.1659963130702 52.2049963473599
vertex 135.1227685808460 109.2039532959497 52.0358271896555
vertex 135.2629959582856 108.9301109314285 52.2331949323380
endloop
endfacet
facet normal -0.4705075932561 0.3449456059319 0.8121792496959
outer loop
vertex 134.8879337310781 108.7894514203356 52.0756561308868
vertex 135.1829990744502 108.6431927978993 52.3087102919888
vertex 135.2629959582856 108.9301109314285 52.2331949323380
endloop
endfacet
facet normal -0.4704516035202 0.3445917923828 0.8123618561747
outer loop
vertex 135.1227685808460 109.2039532959497 52.0358271896555
vertex 134.8879337310781 108.7894514203356 52.0756561308868
vertex 135.2629959582856 108.9301109314285 52.2331949323380
endloop
endfacet
facet normal -0.4703910893296 0.3445620860520 0.8124094976887
outer loop
vertex 134.8090544343008 109.1247536241982 51.8877748399964
vertex 134.8879337310781 108.7894514203356 52.0756561308868
vertex 135.1227685808460 109.2039532959497 52.0358271896555
endloop
endfacet
facet normal -0.4710277700047 0.3456663737088 0.8115710677269
outer loop
vertex 135.3690251707889 108.5550896823406 52.4540450423903
vertex 135.6019824743271 108.5952147841454 52.5721609592438
vertex 135.4513019323065 108.7620295584379 52.4136573076017
endloop
endfacet
facet normal -0.4696812819023 0.3470592612052 0.8117569603289
outer loop
vertex 135.6019824743271 108.5952147841454 52.5721609592438
vertex 135.7421725988388 108.8318750262260 52.5520928204060
vertex 135.4513019323065 108.7620295584379 52.4136573076017
endloop
endfacet
facet normal -0.4695980376240 0.3443873043712 0.8129422289730
outer loop
vertex 135.8428299427033 109.0840250253677 52.5029078125954
vertex 135.9137445688248 109.3419641256332 52.4346008896828
vertex 135.6264501810180 109.3066744506412 52.2835943847717
endloop
endfacet
facet normal -0.4696318451159 0.3453660930996 0.8125073487607
outer loop
vertex 135.7421725988388 108.8318750262260 52.5520928204060
vertex 135.5513706803375 109.0137287974500 52.3645095526941
vertex 135.4513019323065 108.7620295584379 52.4136573076017
endloop
endfacet
facet normal -0.4692079992203 0.3448112024503 0.8129877539868
outer loop
vertex 135.8428299427033 109.0840250253677 52.5029078125954
vertex 135.6264501810180 109.3066744506412 52.2835943847717
vertex 135.5513706803375 109.0137287974500 52.3645095526941
endloop
endfacet
facet normal -0.4692390800639 0.3458152115469 0.8125432451283
outer loop
vertex 135.7421725988388 108.8318750262260 52.5520928204060
vertex 135.8428299427033 109.0840250253677 52.5029078125954
vertex 135.5513706803375 109.0137287974500 52.3645095526941
endloop
endfacet
facet normal -0.4707627859630 0.3441336306120 0.8123758019748
outer loop
vertex 135.7722282409668 110.2859973907471 51.9532077014446
vertex 135.4846879839542 110.1786531507649 51.8320538103536
vertex 135.6194093823220 110.0157573819143 51.9791282713111
endloop
endfacet
facet normal -0.4702338364228 0.3438744154253 0.8127918094438
outer loop
vertex 135.8832716941834 110.0832149386406 52.1032437682152
vertex 135.7722282409668 110.2859973907471 51.9532077014446
vertex 135.6194093823220 110.0157573819143 51.9791282713111
endloop
endfacet
facet normal -0.4702427690646 0.3440752657601 0.8127016362938
outer loop
vertex 135.8832716941834 110.0832149386406 52.1032437682152
vertex 135.6194093823220 110.0157573819143 51.9791282713111
vertex 135.7097700237837 109.8183095455196 52.1150063723326
endloop
endfacet
facet normal -0.4697362469500 0.3437623962540 0.8131268494048
outer loop
vertex 135.9511315822601 109.8538041114807 52.2394329309464
vertex 135.8832716941834 110.0832149386406 52.1032437682152
vertex 135.7097700237837 109.8183095455196 52.1150063723326
endloop
endfacet
facet normal -0.4697049087548 0.3443344704015 0.8129028670050
outer loop
vertex 135.7809007167532 109.5837540924548 52.2554609924306
vertex 135.9511315822601 109.8538041114807 52.2394329309464
vertex 135.7097700237837 109.8183095455196 52.1150063723326
endloop
endfacet
facet normal -0.4699564313354 0.3444807149861 0.8126955085696
outer loop
vertex 135.9529942274094 109.6007004380226 52.3477941751480
vertex 135.9511315822601 109.8538041114807 52.2394329309464
vertex 135.7809007167532 109.5837540924548 52.2554609924306
endloop
endfacet
facet normal -0.4701858437998 0.3443023704203 0.8126383882228
outer loop
vertex 135.2381631730850 109.6218712627834 51.9254039972523
vertex 135.5365142226646 109.5826365053600 52.1146506070700
vertex 135.4946866630513 109.7943410277313 52.0007535814884
endloop
endfacet
facet normal -0.4704058243107 0.3446640948923 0.8123576934742
outer loop
vertex 135.2967917918804 110.1086400448814 51.7529007047344
vertex 135.1609081029892 109.9299304187369 51.7500378191382
vertex 135.3801488876627 109.9396720528354 51.8728587776138
endloop
endfacet
facet normal -0.4702515227502 0.3444426321502 0.8125409395893
outer loop
vertex 135.3801488876627 109.9396720528354 51.8728587776138
vertex 135.2381631730850 109.6218712627834 51.9254039972523
vertex 135.4946866630513 109.7943410277313 52.0007535814884
endloop
endfacet
facet normal -0.4704296065544 0.3445010549506 0.8124130774520
outer loop
vertex 135.1609081029892 109.9299304187369 51.7500378191382
vertex 135.2381631730850 109.6218712627834 51.9254039972523
vertex 135.3801488876627 109.9396720528354 51.8728587776138
endloop
endfacet
facet normal -0.4703256157617 0.3445704761679 0.8124438455129
outer loop
vertex 134.9444016814090 109.7392216324735 51.7055746167867
vertex 134.9033638834918 109.4236187636710 51.8156699836263
vertex 135.2381631730850 109.6218712627834 51.9254039972523
endloop
endfacet
facet normal -0.4703391968749 0.3445433227470 0.8124474990013
outer loop
vertex 134.9444016814090 109.7392216324735 51.7055746167867
vertex 135.2381631730850 109.6218712627834 51.9254039972523
vertex 135.1609081029892 109.9299304187369 51.7500378191382
endloop
endfacet
facet normal -0.4704575148790 0.3448276888050 0.8122583281982
outer loop
vertex 135.0379735231151 110.3590242564394 51.4967124909171
vertex 134.9668502807120 110.0321821868135 51.5942722558973
vertex 135.1535469292600 110.1538799703192 51.6507420688876
endloop
endfacet
facet normal -0.4704505793692 0.3448329387615 0.8122601164137
outer loop
vertex 135.0379735231151 110.3590242564394 51.4967124909171
vertex 135.1535469292600 110.1538799703192 51.6507420688876
vertex 135.3154331445197 110.3519722818795 51.6604073345590
endloop
endfacet
facet normal -0.4704080146714 0.3448286115105 0.8122866048487
outer loop
vertex 135.2493762969971 110.6877252459526 51.4796003699303
vertex 135.0203156471252 110.7256114482880 51.3308644294739
vertex 135.0379735231151 110.3590242564394 51.4967124909171
endloop
endfacet
facet normal -0.4704466985764 0.3448518118157 0.8122543515956
outer loop
vertex 135.2493762969971 110.6877252459526 51.4796003699303
vertex 135.0379735231151 110.3590242564394 51.4967124909171
vertex 135.3154331445197 110.3519722818795 51.6604073345590
endloop
endfacet
facet normal -0.4702444267657 0.3449355356141 0.8123359251975
outer loop
vertex 135.4613602161408 110.6079816818237 51.6361743211746
vertex 135.2493762969971 110.6877252459526 51.4796003699303
vertex 135.3154331445197 110.3519722818795 51.6604073345590
endloop
endfacet
facet normal -0.4706271679458 0.3451250935053 0.8120337053499
outer loop
vertex 135.4613602161408 110.6079816818237 51.6361743211746
vertex 135.3154331445197 110.3519722818795 51.6604073345590
vertex 135.5329155922007 110.3775538503937 51.7755802720718
endloop
endfacet
facet normal -0.4712243062611 0.3448108913920 0.8118208560798
outer loop
vertex 135.6342434883118 110.4661375284195 51.7967715859413
vertex 135.4613602161408 110.6079816818237 51.6361743211746
vertex 135.5329155922007 110.3775538503937 51.7755802720718
endloop
endfacet
facet normal -0.4697915351294 0.3461357265117 0.8120874166941
outer loop
vertex 134.3098282814026 110.4710772633553 51.0268844664097
vertex 134.1060847043991 110.2899014949799 50.9862415492535
vertex 134.2453509569164 110.2322526275543 51.0913785547231
endloop
endfacet
facet normal -0.4705016331374 0.3448637338466 0.8122174698272
outer loop
vertex 134.8160803317775 110.1578883826591 51.4535885304213
vertex 134.7521394491036 110.4167290031910 51.3066463172533
vertex 134.6303373575228 110.1251542567994 51.3598900288628
endloop
endfacet
facet normal -0.4703378909718 0.3461913998902 0.8117473639984
outer loop
vertex 134.4508305191996 110.2593690156368 51.1988718062959
vertex 134.3098282814026 110.4710772633553 51.0268844664097
vertex 134.2453509569164 110.2322526275543 51.0913785547231
endloop
endfacet
facet normal -0.4706155278412 0.3448967054727 0.8121374806699
outer loop
vertex 134.6303373575228 110.1251542567994 51.3598900288628
vertex 134.7521394491036 110.4167290031910 51.3066463172533
vertex 134.4508305191996 110.2593690156368 51.1988718062959
endloop
endfacet
facet normal -0.4718702191201 0.3448962208751 0.8114093252691
outer loop
vertex 134.5356553792954 110.6115952134132 51.0984845459461
vertex 134.3098282814026 110.4710772633553 51.0268844664097
vertex 134.4508305191996 110.2593690156368 51.1988718062959
endloop
endfacet
facet normal -0.4705889468546 0.3448100635215 0.8121896719318
outer loop
vertex 134.7521394491036 110.4167290031910 51.3066463172533
vertex 134.5356553792954 110.6115952134132 51.0984845459461
vertex 134.4508305191996 110.2593690156368 51.1988718062959
endloop
endfacet
facet normal -0.4706207614742 0.3447721986331 0.8121873120895
outer loop
vertex 134.7772777080536 110.6896996498108 51.2053370475769
vertex 134.5356553792954 110.6115952134132 51.0984845459461
vertex 134.7521394491036 110.4167290031910 51.3066463172533
endloop
endfacet
facet normal -0.4702028261922 0.3442339668973 0.8126575405883
outer loop
vertex 134.1382637619830 109.3570142983680 51.4009036124001
vertex 134.3980059027956 109.5598936080435 51.4652524143351
vertex 134.1156661510503 109.5516793429994 51.3053704053874
endloop
endfacet
facet normal -0.4701539019462 0.3445419564527 0.8125553204112
outer loop
vertex 134.1156661510503 109.5516793429994 51.3053704053874
vertex 134.3980059027956 109.5598936080435 51.4652524143351
vertex 134.1977193951731 109.7778379917429 51.2569509446728
endloop
endfacet
facet normal -0.4701122186992 0.3449884992367 0.8123899539163
outer loop
vertex 134.4370096921979 109.9352575837145 51.3285733759723
vertex 134.2468932271030 110.0368313491131 51.1754229664874
vertex 134.1977193951731 109.7778379917429 51.2569509446728
endloop
endfacet
facet normal -0.4699885365754 0.3447151500020 0.8125775291299
outer loop
vertex 134.3980059027956 109.5598936080435 51.4652524143351
vertex 134.4370096921979 109.9352575837145 51.3285733759723
vertex 134.1977193951731 109.7778379917429 51.2569509446728
endloop
endfacet
facet normal -0.4704073323193 0.3446764002588 0.8123515992505
outer loop
vertex 134.6992254256847 109.8713129758764 51.5075456351042
vertex 134.4370096921979 109.9352575837145 51.3285733759723
vertex 134.3980059027956 109.5598936080435 51.4652524143351
endloop
endfacet
facet normal -0.4703957141114 0.3446635059322 0.8123637977065
outer loop
vertex 134.7090303897875 109.5737405121042 51.6394749283915
vertex 134.6992254256847 109.8713129758764 51.5075456351042
vertex 134.3980059027956 109.5598936080435 51.4652524143351
endloop
endfacet
facet normal -0.4701912963331 0.3437577878052 0.8128657504015
outer loop
vertex 133.6724907159805 109.5961853861809 51.0302744805813
vertex 133.5883289575577 109.3402132391930 51.0898418724537
vertex 133.8908821344624 109.3965098261513 51.2410420924212
endloop
endfacet
facet normal -0.4698950110802 0.3441068107038 0.8128894029259
outer loop
vertex 133.6724907159805 109.5961853861809 51.0302744805813
vertex 133.8908821344624 109.3965098261513 51.2410420924212
vertex 133.9498385787294 109.6796318888238 51.1552728712417
endloop
endfacet
facet normal -0.4698632674730 0.3437437546672 0.8130613390187
outer loop
vertex 133.7829381227493 109.8454743623734 50.9887076914310
vertex 133.6724907159805 109.5961853861809 51.0302744805813
vertex 133.9498385787294 109.6796318888238 51.1552728712417
endloop
endfacet
facet normal -0.4689185008625 0.3452011813180 0.8129892889611
outer loop
vertex 134.1129541397135 110.1102977991246 51.0667450726245
vertex 133.9291483163834 110.0787967443466 50.9741045534611
vertex 134.0367943048637 109.9199019371859 51.1036608368087
endloop
endfacet
facet normal -0.4692049107489 0.3444766328477 0.8131313554101
outer loop
vertex 133.7829381227493 109.8454743623734 50.9887076914310
vertex 133.9498385787294 109.6796318888238 51.1552728712417
vertex 134.0367943048637 109.9199019371859 51.1036608368087
endloop
endfacet
facet normal -0.4692409786676 0.3449261738238 0.8129199459666
outer loop
vertex 133.9291483163834 110.0787967443466 50.9741045534611
vertex 133.7829381227493 109.8454743623734 50.9887076914310
vertex 134.0367943048637 109.9199019371859 51.1036608368087
endloop
endfacet
facet normal -0.4717959025718 0.3429096009091 0.8122940550816
outer loop
vertex 133.7924897670746 108.4024310112000 51.6037940979004
vertex 134.1316029429542 108.5604876279973 51.7340339720436
vertex 133.9635625481854 108.7074689567122 51.5743847936729
endloop
endfacet
facet normal -0.4698878747070 0.3436193560552 0.8130997007425
outer loop
vertex 133.6074173450470 109.0927720069885 51.2056276202202
vertex 133.6443573236466 108.8511720299721 51.3290762901306
vertex 133.7657347321599 109.1191023587914 51.2859914451838
endloop
endfacet
facet normal -0.4707465038107 0.3424004385003 0.8131172540691
outer loop
vertex 133.7052285671234 108.6196154356003 51.4618195593357
vertex 133.7924897670746 108.4024310112000 51.6037940979004
vertex 133.9635625481854 108.7074689567122 51.5743847936729
endloop
endfacet
facet normal -0.4700639981472 0.3436787358909 0.8129727942202
outer loop
vertex 133.7657347321599 109.1191023587914 51.2859914451838
vertex 133.6443573236466 108.8511720299721 51.3290762901306
vertex 133.8585764170190 108.8963039219317 51.4338593930077
endloop
endfacet
facet normal -0.4708314474407 0.3430807341635 0.8127812485206
outer loop
vertex 133.7052285671234 108.6196154356003 51.4618195593357
vertex 133.9635625481854 108.7074689567122 51.5743847936729
vertex 133.8585764170190 108.8963039219317 51.4338593930077
endloop
endfacet
facet normal -0.4700608084457 0.3427143008031 0.8133816720264
outer loop
vertex 133.6443573236466 108.8511720299721 51.3290762901306
vertex 133.7052285671234 108.6196154356003 51.4618195593357
vertex 133.8585764170190 108.8963039219317 51.4338593930077
endloop
endfacet
facet normal -0.4705455767128 0.3436664586894 0.8126993450274
outer loop
vertex 134.2809125781024 109.1465465723864 51.5725947916863
vertex 134.0012773871813 109.1415658592574 51.4127947390186
vertex 134.0664774180453 108.9425012469141 51.5347234905370
endloop
endfacet
facet normal -0.4707293599824 0.3438974977932 0.8124951573161
outer loop
vertex 134.2216208577227 108.8254041969794 51.6741704195631
vertex 134.2809125781024 109.1465465723864 51.5725947916863
vertex 134.0664774180453 108.9425012469141 51.5347234905370
endloop
endfacet
facet normal -0.4706024455950 0.3442771194901 0.8124079044394
outer loop
vertex 134.5290169119977 108.9213080704283 51.8117640167572
vertex 134.6047744154939 109.2896275221946 51.6995638609110
vertex 134.2809125781024 109.1465465723864 51.5725947916863
endloop
endfacet
facet normal -0.4709228176606 0.3438977243483 0.8123829484884
outer loop
vertex 134.5290169119977 108.9213080704283 51.8117640167572
vertex 134.2809125781024 109.1465465723864 51.5725947916863
vertex 134.2216208577227 108.8254041969794 51.6741704195631
endloop
endfacet
facet normal -0.4709450072034 0.3441259983562 0.8122734129870
outer loop
vertex 134.3509554863651 108.6770594120168 51.8120042979762
vertex 134.5290169119977 108.9213080704283 51.8117640167572
vertex 134.2216208577227 108.8254041969794 51.6741704195631
endloop
endfacet
facet normal -0.4713948156034 0.3447288170236 0.8117567188116
outer loop
vertex 134.4558969140213 108.2729771733675 52.0443860441435
vertex 134.5436647534406 108.6000092328092 51.9564729183912
vertex 134.3236863613164 108.4771379828418 51.8809091299763
endloop
endfacet
facet normal -0.4719659327929 0.3442544387558 0.8116261699082
outer loop
vertex 134.4558969140213 108.2729771733675 52.0443860441435
vertex 134.3236863613164 108.4771379828418 51.8809091299763
vertex 134.1319903731240 108.2728952169525 51.8560670316233
endloop
endfacet
facet normal -0.4721118566155 0.3454509256004 0.8110327076295
outer loop
vertex 134.2626214027405 107.9584285616875 52.0658567547798
vertex 134.4948709011078 107.9393550753593 52.2091761231422
vertex 134.4558969140213 108.2729771733675 52.0443860441435
endloop
endfacet
facet normal -0.4717795150667 0.3452653098970 0.8113050936270
outer loop
vertex 134.2626214027405 107.9584285616875 52.0658567547798
vertex 134.4558969140213 108.2729771733675 52.0443860441435
vertex 134.1319903731240 108.2728952169525 51.8560670316233
endloop
endfacet
facet normal -0.4741102750562 0.3438043493164 0.8105664787525
outer loop
vertex 134.0527385473251 108.0363243818283 51.9100539386272
vertex 134.2626214027405 107.9584285616875 52.0658567547798
vertex 134.1319903731240 108.2728952169525 51.8560670316233
endloop
endfacet
facet normal -0.4731925163618 0.3436355637113 0.8111741131298
outer loop
vertex 133.9022070169449 108.2006916403770 51.7526119947433
vertex 134.0527385473251 108.0363243818283 51.9100539386272
vertex 134.1319903731240 108.2728952169525 51.8560670316233
endloop
endfacet
endsolid WRAP
