solid WRAP
facet normal -0.4475466303303 -0.8634112820499 0.2328582652794
outer loop
vertex 178.0827000000000 180.5674000000000 73.4053490000000
vertex 178.6218000000000 180.8391000000000 75.4489150000000
vertex 177.3318000000000 181.3014000000000 74.6837280000000
endloop
endfacet
facet normal -0.4458792943838 -0.8653340330072 0.2288857054497
outer loop
vertex 177.3318000000000 181.3014000000000 74.6837280000000
vertex 178.6218000000000 180.8391000000000 75.4489150000000
vertex 177.1648000000000 181.7954000000000 76.2260400000000
endloop
endfacet
facet normal -0.6575515686605 -0.7352746036605 0.1643082218397
outer loop
vertex 177.3318000000000 181.3014000000000 74.6837280000000
vertex 177.1648000000000 181.7954000000000 76.2260400000000
vertex 176.2906000000000 182.2320000000000 74.6813170000000
endloop
endfacet
facet normal -0.5867135169862 -0.8096667769743 0.0143860783300
outer loop
vertex 176.9084000000000 181.3930000000000 71.9791930000000
vertex 178.0827000000000 180.5674000000000 73.4053490000000
vertex 176.7791000000000 181.5146000000000 73.5496990000000
endloop
endfacet
facet normal -0.5587823196035 -0.8028681214718 0.2077621207602
outer loop
vertex 178.0827000000000 180.5674000000000 73.4053490000000
vertex 178.0064000000000 180.0952000000000 71.3753860000000
vertex 179.3352000000000 179.4390000000000 72.4134380000000
endloop
endfacet
facet normal -0.7059164565122 -0.6835618931718 0.1855400081615
outer loop
vertex 178.0827000000000 180.5674000000000 73.4053490000000
vertex 176.9084000000000 181.3930000000000 71.9791930000000
vertex 178.0064000000000 180.0952000000000 71.3753860000000
endloop
endfacet
facet normal -0.5737378082031 -0.8090504865939 0.1275234785460
outer loop
vertex 178.0827000000000 180.5674000000000 73.4053490000000
vertex 177.3318000000000 181.3014000000000 74.6837280000000
vertex 176.7791000000000 181.5146000000000 73.5496990000000
endloop
endfacet
facet normal -0.8817026220012 -0.4708483258989 0.0300389805814
outer loop
vertex 176.2906000000000 182.2320000000000 74.6813170000000
vertex 175.6012000000000 183.5073000000000 74.4358720000000
vertex 175.9396000000000 182.7773000000000 72.9261300000000
endloop
endfacet
facet normal -0.4678107045948 -0.8112541322128 0.3507418960350
outer loop
vertex 179.3352000000000 179.4390000000000 72.4134380000000
vertex 180.9481000000000 178.7946000000000 73.0742080000000
vertex 179.9098000000000 179.9029000000000 74.2528100000000
endloop
endfacet
facet normal -0.3223866178183 -0.9017989550990 0.2877942202930
outer loop
vertex 182.2782000000000 179.8942000000000 76.9317900000000
vertex 181.0442000000000 180.7374000000000 78.1916200000000
vertex 180.4485000000000 180.3349000000000 76.2630900000000
endloop
endfacet
facet normal -0.3431148009236 -0.8926585243855 0.2922892270151
outer loop
vertex 180.4485000000000 180.3349000000000 76.2630900000000
vertex 181.0442000000000 180.7374000000000 78.1916200000000
vertex 178.9161000000000 181.4147000000000 77.7619600000000
endloop
endfacet
facet normal -0.4591223667545 -0.8167699235516 0.3494188665875
outer loop
vertex 178.0827000000000 180.5674000000000 73.4053490000000
vertex 179.3352000000000 179.4390000000000 72.4134380000000
vertex 179.9098000000000 179.9029000000000 74.2528100000000
endloop
endfacet
facet normal -0.2559818406337 -0.9003642058318 0.3518772429736
outer loop
vertex 181.0442000000000 180.7374000000000 78.1916200000000
vertex 182.2782000000000 179.8942000000000 76.9317900000000
vertex 182.8491000000000 180.3910000000000 78.6182900000000
endloop
endfacet
facet normal -0.8312595181052 -0.5558470428000 -0.0064558942061
outer loop
vertex 176.7791000000000 181.5146000000000 73.5496990000000
vertex 176.2906000000000 182.2320000000000 74.6813170000000
vertex 175.9396000000000 182.7773000000000 72.9261300000000
endloop
endfacet
facet normal -0.4246002441435 -0.8760750987051 0.2284886301377
outer loop
vertex 178.6218000000000 180.8391000000000 75.4489150000000
vertex 178.0827000000000 180.5674000000000 73.4053490000000
vertex 179.9098000000000 179.9029000000000 74.2528100000000
endloop
endfacet
facet normal -0.4240180396812 -0.8647384507208 0.2691395806450
outer loop
vertex 177.1648000000000 181.7954000000000 76.2260400000000
vertex 178.6218000000000 180.8391000000000 75.4489150000000
vertex 178.9161000000000 181.4147000000000 77.7619600000000
endloop
endfacet
facet normal -0.3258544960840 -0.5251203272539 0.7861726841392
outer loop
vertex 178.9161000000000 181.4147000000000 77.7619600000000
vertex 181.0442000000000 180.7374000000000 78.1916200000000
vertex 180.4504000000000 182.1578000000000 78.8942500000000
endloop
endfacet
facet normal -0.3209710334352 -0.0821094377006 0.9435229917368
outer loop
vertex 180.4504000000000 182.1578000000000 78.8942500000000
vertex 181.2955000000000 183.5750000000000 79.3050700000000
vertex 179.4167000000000 183.5552000000000 78.6642100000000
endloop
endfacet
facet normal -0.4992924781160 -0.7329242521777 0.4620920491270
outer loop
vertex 180.9481000000000 178.7946000000000 73.0742080000000
vertex 182.5434000000000 178.0073000000000 73.5492000000000
vertex 181.9510000000000 179.2997000000000 74.9589850000000
endloop
endfacet
facet normal -0.3887599790186 -0.8170342556310 0.4258176884994
outer loop
vertex 179.9098000000000 179.9029000000000 74.2528100000000
vertex 180.9481000000000 178.7946000000000 73.0742080000000
vertex 181.9510000000000 179.2997000000000 74.9589850000000
endloop
endfacet
facet normal -0.5014730459613 -0.2338307078267 0.8329753803394
outer loop
vertex 178.9161000000000 181.4147000000000 77.7619600000000
vertex 180.4504000000000 182.1578000000000 78.8942500000000
vertex 179.4167000000000 183.5552000000000 78.6642100000000
endloop
endfacet
facet normal -0.3313430225144 -0.8867955113244 0.3221886443156
outer loop
vertex 182.2782000000000 179.8942000000000 76.9317900000000
vertex 180.4485000000000 180.3349000000000 76.2630900000000
vertex 181.9510000000000 179.2997000000000 74.9589850000000
endloop
endfacet
facet normal -0.6972525377586 -0.4027826448761 0.5929629327166
outer loop
vertex 176.0709000000000 183.3983000000000 76.0285500000000
vertex 177.1648000000000 181.7954000000000 76.2260400000000
vertex 177.4638000000000 183.4032000000000 77.6697600000000
endloop
endfacet
facet normal -0.8741444997135 -0.4285733765157 0.2284649963616
outer loop
vertex 175.6012000000000 183.5073000000000 74.4358720000000
vertex 176.2906000000000 182.2320000000000 74.6813170000000
vertex 176.0709000000000 183.3983000000000 76.0285500000000
endloop
endfacet
facet normal -0.4768997880463 -0.7385103441485 0.4766225589993
outer loop
vertex 181.9510000000000 179.2997000000000 74.9589850000000
vertex 182.5434000000000 178.0073000000000 73.5492000000000
vertex 183.6651000000000 178.2028000000000 74.9744730000000
endloop
endfacet
facet normal -0.4798013633457 -0.7431899625328 0.4663253492166
outer loop
vertex 181.9510000000000 179.2997000000000 74.9589850000000
vertex 183.6651000000000 178.2028000000000 74.9744730000000
vertex 183.4108000000000 179.0675000000000 76.0909100000000
endloop
endfacet
facet normal -0.8026004739234 -0.5095155807499 0.3102037269779
outer loop
vertex 176.2906000000000 182.2320000000000 74.6813170000000
vertex 177.1648000000000 181.7954000000000 76.2260400000000
vertex 176.0709000000000 183.3983000000000 76.0285500000000
endloop
endfacet
facet normal -0.3655909481446 -0.8912657592561 0.2683069231540
outer loop
vertex 178.6218000000000 180.8391000000000 75.4489150000000
vertex 180.4485000000000 180.3349000000000 76.2630900000000
vertex 178.9161000000000 181.4147000000000 77.7619600000000
endloop
endfacet
facet normal -0.3723445210667 -0.8818579915705 0.2892853959931
outer loop
vertex 178.6218000000000 180.8391000000000 75.4489150000000
vertex 179.9098000000000 179.9029000000000 74.2528100000000
vertex 180.4485000000000 180.3349000000000 76.2630900000000
endloop
endfacet
facet normal -0.8268611742579 -0.5618690542416 -0.0245716175779
outer loop
vertex 176.9084000000000 181.3930000000000 71.9791930000000
vertex 176.7791000000000 181.5146000000000 73.5496990000000
vertex 175.9396000000000 182.7773000000000 72.9261300000000
endloop
endfacet
facet normal -0.3910171976873 -0.8624893225921 0.3212751461401
outer loop
vertex 182.2782000000000 179.8942000000000 76.9317900000000
vertex 183.4108000000000 179.0675000000000 76.0909100000000
vertex 183.8946000000000 179.3764000000000 77.5090000000000
endloop
endfacet
facet normal -0.3886724547663 -0.8623999784019 0.3243454950487
outer loop
vertex 182.2782000000000 179.8942000000000 76.9317900000000
vertex 181.9510000000000 179.2997000000000 74.9589850000000
vertex 183.4108000000000 179.0675000000000 76.0909100000000
endloop
endfacet
facet normal -0.4207042006897 -0.2670613318839 0.8669983970772
outer loop
vertex 178.9161000000000 181.4147000000000 77.7619600000000
vertex 179.4167000000000 183.5552000000000 78.6642100000000
vertex 177.4638000000000 183.4032000000000 77.6697600000000
endloop
endfacet
facet normal -0.6439830076539 -0.4413586088889 0.6248907618237
outer loop
vertex 177.1648000000000 181.7954000000000 76.2260400000000
vertex 178.9161000000000 181.4147000000000 77.7619600000000
vertex 177.4638000000000 183.4032000000000 77.6697600000000
endloop
endfacet
facet normal -0.3615543731208 -0.8869229521076 0.2874823686803
outer loop
vertex 180.4485000000000 180.3349000000000 76.2630900000000
vertex 179.9098000000000 179.9029000000000 74.2528100000000
vertex 181.9510000000000 179.2997000000000 74.9589850000000
endloop
endfacet
facet normal -0.2821486529172 -0.5175464973944 0.8077980940135
outer loop
vertex 180.4504000000000 182.1578000000000 78.8942500000000
vertex 181.0442000000000 180.7374000000000 78.1916200000000
vertex 182.0440000000000 181.8984000000000 79.2846700000000
endloop
endfacet
facet normal -0.4027478925019 -0.8320467084591 0.3814346733423
outer loop
vertex 182.8491000000000 180.3910000000000 78.6182900000000
vertex 182.2782000000000 179.8942000000000 76.9317900000000
vertex 183.8946000000000 179.3764000000000 77.5090000000000
endloop
endfacet
facet normal -0.2894523443391 -0.5120947377910 0.8086880238283
outer loop
vertex 181.0442000000000 180.7374000000000 78.1916200000000
vertex 182.8491000000000 180.3910000000000 78.6182900000000
vertex 182.0440000000000 181.8984000000000 79.2846700000000
endloop
endfacet
facet normal -0.2187931746687 -0.8139087037874 0.5382213007839
outer loop
vertex 182.8491000000000 180.3910000000000 78.6182900000000
vertex 183.8946000000000 179.3764000000000 77.5090000000000
vertex 184.5297000000000 180.1444000000000 78.9285600000000
endloop
endfacet
facet normal -0.2553165667539 -0.1256477891175 0.9586584813326
outer loop
vertex 181.2955000000000 183.5750000000000 79.3050700000000
vertex 180.4504000000000 182.1578000000000 78.8942500000000
vertex 182.0440000000000 181.8984000000000 79.2846700000000
endloop
endfacet
facet normal -0.2037801363515 -0.1028217332828 0.9736022530753
outer loop
vertex 181.2955000000000 183.5750000000000 79.3050700000000
vertex 182.0440000000000 181.8984000000000 79.2846700000000
vertex 183.1578000000000 183.3719000000000 79.6734100000000
endloop
endfacet
facet normal -0.1999720275372 -0.4835298637867 0.8521795931780
outer loop
vertex 182.0440000000000 181.8984000000000 79.2846700000000
vertex 182.8491000000000 180.3910000000000 78.6182900000000
vertex 183.8257000000000 181.6368000000000 79.5543300000000
endloop
endfacet
facet normal -0.2262708159507 -0.4655071875737 0.8556310981762
outer loop
vertex 182.8491000000000 180.3910000000000 78.6182900000000
vertex 184.5297000000000 180.1444000000000 78.9285600000000
vertex 183.8257000000000 181.6368000000000 79.5543300000000
endloop
endfacet
facet normal -0.1671833653572 -0.1314150271897 0.9771283503085
outer loop
vertex 183.1578000000000 183.3719000000000 79.6734100000000
vertex 182.0440000000000 181.8984000000000 79.2846700000000
vertex 183.8257000000000 181.6368000000000 79.5543300000000
endloop
endfacet
facet normal -0.6555388958628 -0.7329776872499 0.1816933295548
outer loop
vertex 177.3318000000000 181.3014000000000 74.6837280000000
vertex 176.2906000000000 182.2320000000000 74.6813170000000
vertex 176.7791000000000 181.5146000000000 73.5496990000000
endloop
endfacet
endsolid WRAP
